<svg xmlns="http://www.w3.org/2000/svg" width="32" height="32" viewBox="0 0 32 32">
  <g id="benefit_user" transform="translate(90.568 -556.345)">
    <circle id="Ellipse_37" data-name="Ellipse 37" cx="6" cy="6" r="6" transform="translate(-80.568 561.345)" fill="#e31b23"/>
    <path id="Path_65" data-name="Path 65" d="M-74.568,556.345a16.018,16.018,0,0,0-16,16,16.019,16.019,0,0,0,16,16,16.019,16.019,0,0,0,16-16A16.018,16.018,0,0,0-74.568,556.345Zm9.283,25.083v-.757h-.064a9.269,9.269,0,0,0-5.557-7.656l-2.778,4.9a.989.989,0,0,1-.377.377,1,1,0,0,1-1.363-.377l-2.777-4.9a9.271,9.271,0,0,0-5.56,7.656h-.063v.787a12.953,12.953,0,0,1-3.744-9.113,13.015,13.015,0,0,1,13-13,13.014,13.014,0,0,1,13,13A12.948,12.948,0,0,1-65.285,581.428Z" fill="#e31b23"/>
  </g>
</svg>
