<svg xmlns="http://www.w3.org/2000/svg" width="27.238" height="32" viewBox="0 0 27.238 32">
  <g id="benefit_shield" transform="translate(46.274 -597.071)">
    <path id="Path_68" data-name="Path 68" d="M-32.655,629.071a1.464,1.464,0,0,1-.357-.045c-13.32-3.413-13.263-14.9-13.261-15.01V602.392a1.438,1.438,0,0,1,1-1.37l12.181-3.882a1.415,1.415,0,0,1,.873,0l12.182,3.882a1.438,1.438,0,0,1,1,1.37v11.649c0,.1-.058,11.6-13.262,14.985A1.451,1.451,0,0,1-32.655,629.071ZM-43.4,603.443v10.6c0,.4.035,9.17,10.744,12.1,10.618-2.914,10.744-11.72,10.744-12.1v-10.6l-10.744-3.425Z" fill="#e31b23"/>
    <path id="Path_67" data-name="Path 67" d="M-32.654,603.232l-8.221,2.623v7.872s-.131,7.041,8.223,9.184c8.278-2.123,8.222-9.184,8.222-9.184v-7.872Z" fill="#e31b23"/>
  </g>
</svg>
