<svg xmlns="http://www.w3.org/2000/svg" width="26.061" height="32.001" viewBox="0 0 26.061 32.001">
  <g id="benefit_stopwatch" transform="translate(68.854 -542.84)">
    <path id="Path_69" data-name="Path 69" d="M-44.087,554.815l.708-.707a2,2,0,0,0,0-2.828l-1.415-1.414a2,2,0,0,0-2.828,0l-.707.707a1.962,1.962,0,0,0-.328.45,12.955,12.955,0,0,0-4.2-1.819V547.84h1a2,2,0,0,0,2-2v-1a2,2,0,0,0-2-2h-7a2,2,0,0,0-2,2v1a2,2,0,0,0,2,2h1v1.171a13.009,13.009,0,0,0-11,12.83,13.015,13.015,0,0,0,13,13,13.015,13.015,0,0,0,13-13,12.9,12.9,0,0,0-1.831-6.619A1.978,1.978,0,0,0-44.087,554.815Zm-11.767,17.026a10.012,10.012,0,0,1-10-10,10.011,10.011,0,0,1,10-10,10.011,10.011,0,0,1,10,10A10.012,10.012,0,0,1-55.854,571.841Z" fill="#e31b23"/>
    <path id="Path_70" data-name="Path 70" d="M-51.683,564l-3.171-1.585v-5.073a1.5,1.5,0,0,0-1.5-1.5,1.5,1.5,0,0,0-1.5,1.5v6c0,.03.007.059.009.089a1.427,1.427,0,0,0,.016.159,1.31,1.31,0,0,0,.033.141,1.26,1.26,0,0,0,.042.136,1.385,1.385,0,0,0,.06.137c.021.042.043.083.067.123s.054.08.083.119.06.076.093.112a1.437,1.437,0,0,0,.1.1,1.4,1.4,0,0,0,.11.091c.043.031.088.058.134.085.027.015.049.035.077.049l4,2a1.5,1.5,0,0,0,.67.158,1.5,1.5,0,0,0,1.343-.829A1.5,1.5,0,0,0-51.683,564Z" fill="#e31b23"/>
  </g>
</svg>
