<svg xmlns="http://www.w3.org/2000/svg" width="25.088" height="32" viewBox="0 0 25.088 32">
  <g id="benefit_globe" transform="translate(30.229 -515.603)">
    <path id="Path_55" data-name="Path 55" d="M-24.684,530.219a.629.629,0,0,0,.025.106c.01.02.028.033.039.052a10.11,10.11,0,0,0,13.235,5.291c.021-.009.04-.02.061-.03s.037-.01.055-.017c.062-.027.117-.065.176-.095a10.069,10.069,0,0,0,5.177-5.521l.007-.011.009-.024v-.015a10.069,10.069,0,0,0-.133-7.538l-.005-.011a10.059,10.059,0,0,0-5.1-5.224.71.71,0,0,0-.229-.17l-.013-.005a.691.691,0,0,0-.251-.045,10.077,10.077,0,0,0-6.927-.178,2.955,2.955,0,0,0-.636.181,2.967,2.967,0,0,0-.525.294A10.1,10.1,0,0,0-24.684,530.219Zm5.953-11.855c.18-.076.364-.136.546-.2,1.028-.106,2.431.668,3.789,2.177a9.025,9.025,0,0,1-2.623,1.705,9.009,9.009,0,0,1-3.068.7c-.141-2.05.291-3.612,1.1-4.259C-18.9,518.449-18.82,518.4-18.731,518.364ZM-7.1,523.612a8.641,8.641,0,0,1,.078,5.268,10.416,10.416,0,0,0-2.059-.373,17.891,17.891,0,0,0-.99-3.634Zm-4.742,10.649c-1.021.434-2.628-.315-4.18-2.011a9.1,9.1,0,0,1,5.637-2.379C-10.25,532.158-10.826,533.829-11.846,534.261Zm1.3-5.763a10.5,10.5,0,0,0-6.351,2.68,16.509,16.509,0,0,1-1.609-2.724l7.115-3.02A16.423,16.423,0,0,1-10.55,528.5Zm-8.514-1.346a16.539,16.539,0,0,1-.847-3.008,10.445,10.445,0,0,0,3.421-.8,10.4,10.4,0,0,0,2.968-1.912,16.575,16.575,0,0,1,1.575,2.7Zm3.784-9.477a8.678,8.678,0,0,1,2.64.436,9.037,9.037,0,0,1-.785,1.172A10.173,10.173,0,0,0-15.28,517.675Zm-5.09,10.031-3.214,1.364a8.637,8.637,0,0,1-.023-5.346,10.494,10.494,0,0,0,2.259.426A18.127,18.127,0,0,0-20.37,527.706Zm-2.662,2.668,3.215-1.365a18.061,18.061,0,0,0,1.9,3.208,10.406,10.406,0,0,0-1.268,1.925A8.637,8.637,0,0,1-23.032,530.374Zm5.137,4.284a9,9,0,0,1,.882-1.346,9.842,9.842,0,0,0,2.036,1.72A8.672,8.672,0,0,1-17.9,534.658Zm8.818-2.273a10.094,10.094,0,0,0,.148-2.472,9.011,9.011,0,0,1,1.391.257A8.681,8.681,0,0,1-9.077,532.385Zm1.418-10.075-2.969,1.26a18.038,18.038,0,0,0-1.889-3.184,10.445,10.445,0,0,0,1.165-1.743A8.646,8.646,0,0,1-7.659,522.31ZM-21.352,520.1a9.935,9.935,0,0,0-.163,2.607,9.027,9.027,0,0,1-1.555-.3A8.673,8.673,0,0,1-21.352,520.1Z" transform="translate(-0.261)" fill="#e31b23" stroke="#e31b23" stroke-width="0.5"/>
    <path id="Path_56" data-name="Path 56" d="M-15.708,540.69a14.3,14.3,0,0,0,10.141-4.3,1.486,1.486,0,0,0-.019-2.1,1.486,1.486,0,0,0-2.1.019,11.345,11.345,0,0,1-8.049,3.417,11.286,11.286,0,0,1-8.108-3.275A11.345,11.345,0,0,1-27.26,526.4a11.348,11.348,0,0,1,3.28-8.113l.141-.141a1.485,1.485,0,0,0,.01-2.1,1.484,1.484,0,0,0-2.1-.01l-.174.174a14.3,14.3,0,0,0-4.126,10.215,14.3,14.3,0,0,0,4.305,10.141,14.289,14.289,0,0,0,7.082,3.806v1.294h-1.653a1.979,1.979,0,0,0-1.979,1.979v.99h-.247a1.979,1.979,0,0,0-1.979,1.979v.99H-9.855v-.99a1.979,1.979,0,0,0-1.979-1.979h-.247v-.99a1.979,1.979,0,0,0-1.979-1.979h-1.652v-.975Z" fill="#e31b23"/>
  </g>
</svg>
