<svg xmlns="http://www.w3.org/2000/svg" width="21" height="33.003" viewBox="0 0 21 33.003">
  <path id="benefit_lightbulb" d="M11.5,32h-3a2,2,0,0,1-2-2v-.266A2.006,2.006,0,0,1,5.5,28V27a2,2,0,0,1,2-2h5a2,2,0,0,1,2,2v1a2.007,2.007,0,0,1-1,1.733V30A2,2,0,0,1,11.5,32Zm.5-8H8a2.01,2.01,0,0,1-1.993-1.846c-.228-.844-.977-2.674-3.431-5.456a10,10,0,1,1,14.846,0c-2.671,3.131-2.73,3.32-3.45,5.642A1.994,1.994,0,0,1,12,24ZM9.386,2.533a1,1,0,0,0,0,2A5.577,5.577,0,0,1,14.957,10.1a1,1,0,1,0,2,0A7.579,7.579,0,0,0,9.386,2.533Z" transform="translate(0.5 0.5)" fill="#e31b23" stroke="rgba(0,0,0,0)" stroke-miterlimit="10" stroke-width="1"/>
</svg>
