<svg xmlns="http://www.w3.org/2000/svg" width="32" height="32" viewBox="0 0 32 32">
  <g id="benefit_check" transform="translate(-16412.001 -8641)">
    <path id="Path_85" data-name="Path 85" d="M194.66,586.659a16,16,0,1,1,16-16A16.018,16.018,0,0,1,194.66,586.659Zm0-29a13,13,0,1,0,13,13A13.014,13.014,0,0,0,194.66,557.659Z" transform="translate(16233.341 8086.341)" fill="#d8001b"/>
    <path id="Path_86" data-name="Path 86" d="M192.979,579.083a2,2,0,0,1-1.25-.439l-5.5-4.413a2,2,0,0,1,2.5-3.121l3.984,3.2,8.385-9.91a2,2,0,1,1,3.052,2.583l-9.642,11.4A2,2,0,0,1,192.979,579.083Z" transform="translate(16232.341 8086.341)" fill="#d8001b"/>
  </g>
</svg>
