<svg width="0" height="0" class="hidden">
  <symbol xmlns="http://www.w3.org/2000/svg" viewBox="0 0 26.061 32.001" id="benefit_stopwatch">
    <g fill="currentColor">
      <path
        d="M24.767 11.975l.708-.707a2 2 0 000-2.828L24.06 7.026a2 2 0 00-2.828 0l-.707.707a1.962 1.962 0 00-.328.45 12.955 12.955 0 00-4.2-1.819V5h1a2 2 0 002-2V2a2 2 0 00-2-2h-7a2 2 0 00-2 2v1a2 2 0 002 2h1v1.171a13.009 13.009 0 00-11 12.83 13.015 13.015 0 0013 13 13.015 13.015 0 0013-13 12.9 12.9 0 00-1.831-6.619 1.978 1.978 0 00.601-.407zM13 29.001a10.012 10.012 0 01-10-10 10.011 10.011 0 0110-10 10.011 10.011 0 0110 10 10.012 10.012 0 01-10 10z">
      </path>
      <path
        d="M17.171 21.16L14 19.575v-5.073a1.5 1.5 0 00-1.5-1.5 1.5 1.5 0 00-1.5 1.5v6c0 .03.007.059.009.089a1.427 1.427 0 00.016.159 1.31 1.31 0 00.033.141 1.26 1.26 0 00.042.136 1.385 1.385 0 00.06.137c.021.042.043.083.067.123s.054.08.083.119.06.076.093.112a1.437 1.437 0 00.1.1 1.4 1.4 0 00.11.091c.043.031.088.058.134.085.027.015.049.035.077.049l4 2a1.5 1.5 0 00.67.158 1.5 1.5 0 001.343-.829 1.5 1.5 0 00-.666-2.012z">
      </path>
    </g>
  </symbol>
  <symbol xmlns="http://www.w3.org/2000/svg" viewBox="0 0 32 30.794" id="benefit_thumbsup">
    <path
      d="M7 29.318H2a2 2 0 01-2-2v-12a2 2 0 012-2h5a2 2 0 012 2v12a2 2 0 01-2 2zm-2.5-5a1.5 1.5 0 101.5 1.5 1.5 1.5 0 00-1.5-1.5zM19.113 30.7l-7.1-2.128H12a2 2 0 01-2-2V15.464a2 2 0 01.734-1.548l4.286-6L16.291 1.5A1.884 1.884 0 0118.5.034a4.631 4.631 0 013.728 5.423l-1.158 5.848H30a2 2 0 012 2v1.4a2 2 0 01-2 2 2 2 0 012 2v1.4A2 2 0 0130.621 22a1.99 1.99 0 01.279 1.019v1.4a2 2 0 01-1.379 1.9 1.99 1.99 0 01.279 1.019v1.4a2 2 0 01-2 2h-7.552a2.16 2.16 0 01-1.135-.038z"
      fill="currentColor"></path>
  </symbol>
  <symbol xmlns="http://www.w3.org/2000/svg" viewBox="0 0 33 33" id="benefit_trophy">
    <path
      d="M11.151 32.5H6v-2a2 2 0 012-2h1.15v-1a2 2 0 012-2h2.817v-3.585a11.474 11.474 0 01-4.893-5.29l-.03-.063a18.467 18.467 0 01-3.671-2.044A11.251 11.251 0 01.5 5.608a10.608 10.608 0 01.075-1.287A1.5 1.5 0 012.064 3h3.929q0-.28.007-.56c0-.64.016-1.3.049-1.94h20.9c.033.658.051 1.311.051 1.94V3h3.936a1.5 1.5 0 011.484 1.312 10.165 10.165 0 01.08 1.246c0 4.771-3.471 8.923-8.552 11.01a11.732 11.732 0 01-4.819 5.3V25.5h2.722a2 2 0 012 2v1H25a2 2 0 012 2v2zm14.505-20.245A8.524 8.524 0 0029.486 6h-2.651a33.209 33.209 0 01-1.179 6.255zm-18.563-.194q.135.1.272.191A31.251 31.251 0 016.128 6h-2.6a8.252 8.252 0 003.565 6.061z"
      fill="currentColor" stroke="rgba(0,0,0,0)" stroke-miterlimit="10"></path>
  </symbol>
  <symbol xmlns="http://www.w3.org/2000/svg" viewBox="0 0 32 32" id="benefit_user">
    <g transform="translate(90.568 -556.345)" fill="currentColor">
      <circle cx="6" cy="6" r="6" transform="translate(-80.568 561.345)"></circle>
      <path
        d="M-74.568 556.345a16.018 16.018 0 00-16 16 16.019 16.019 0 0016 16 16.019 16.019 0 0016-16 16.018 16.018 0 00-16-16zm9.283 25.083v-.757h-.064a9.269 9.269 0 00-5.557-7.656l-2.778 4.9a.989.989 0 01-.377.377 1 1 0 01-1.363-.377l-2.777-4.9a9.271 9.271 0 00-5.56 7.656h-.063v.787a12.953 12.953 0 01-3.744-9.113 13.015 13.015 0 0113-13 13.014 13.014 0 0113 13 12.948 12.948 0 01-3.717 9.083z">
      </path>
    </g>
  </symbol>
  <symbol xmlns="http://www.w3.org/2000/svg" viewBox="0 0 32 35.435" id="benefit_award">
    <g transform="translate(58.568 -346.018)">
      <circle cx="7.908" cy="7.908" r="7.908" transform="translate(-50.309 350.342)" fill="none"></circle>
      <circle cx="5.648" cy="5.648" r="5.648" transform="translate(-48.05 352.601)" fill="currentColor"></circle>
      <path
        d="M-48.9 369.902l-.15-.357a.563.563 0 00-.521-.346h-.015l-.374.01h-.11a3.947 3.947 0 01-3.018-1.4 4 4 0 01-.479-.711l-4.7 8.147a2.266 2.266 0 00.227 2.578l3.871-1.319a1.13 1.13 0 01.363-.06 1.13 1.13 0 011.109.9l.8 4.052a2.278 2.278 0 00.479.051 2.265 2.265 0 001.954-1.119l4.642-8.039a3.859 3.859 0 01-.427.032 3.946 3.946 0 01-3.651-2.419zm11.432-.656l.15-.357a2.257 2.257 0 012.082-1.384h.061l.375.01h.062a2.23 2.23 0 00.471-.053c.053-.011.1-.031.154-.045a2.41 2.41 0 00.276-.1c.061-.027.119-.059.176-.09a1.965 1.965 0 00.2-.125 2.166 2.166 0 00.18-.138c.049-.042.094-.087.139-.133a2.392 2.392 0 00.176-.194c.025-.033.045-.068.068-.1a2.229 2.229 0 00.383-1.662l-.072-.432a2.259 2.259 0 011.048-2.3l.364-.223a2.258 2.258 0 00.5-3.443l-.3-.33a2.26 2.26 0 01-.358-2.5l.2-.4a2.259 2.259 0 00-1.449-3.167l-.386-.1a2.261 2.261 0 01-1.661-1.924l-.047-.412a2.262 2.262 0 00-2.242-2 2.249 2.249 0 00-.7.113l-.339.111a2.274 2.274 0 01-.7.112 2.26 2.26 0 01-1.754-.835l-.229-.282a2.246 2.246 0 00-1.753-.835 2.25 2.25 0 00-1.754.835l-.229.282a2.258 2.258 0 01-1.753.835 2.274 2.274 0 01-.7-.112l-.339-.111a2.255 2.255 0 00-.7-.113 2.262 2.262 0 00-2.242 2l-.047.412a2.261 2.261 0 01-1.661 1.924l-.387.1a2.26 2.26 0 00-1.449 3.167l.2.4a2.259 2.259 0 01-.359 2.5l-.3.33a2.259 2.259 0 00.5 3.443l.365.223a2.261 2.261 0 011.048 2.3l-.073.432a2.249 2.249 0 00.508 1.842l.025.024a2.263 2.263 0 00.32.3c.035.027.078.046.115.071a2.127 2.127 0 00.293.18 2.282 2.282 0 00.252.087c.07.024.137.056.209.073a2.312 2.312 0 00.5.056h.063l.374-.01h.061a2.259 2.259 0 012.083 1.384l.15.357a2.257 2.257 0 002.086 1.384 2.236 2.236 0 001.277-.4l.29-.2a2.257 2.257 0 011.281-.4 2.256 2.256 0 01.611.092c.049.014.094.035.141.051a2.259 2.259 0 01.529.256l.289.2a2.24 2.24 0 001.278.4 2.257 2.257 0 002.07-1.376zm-4.934-18.9a7.916 7.916 0 017.908 7.908 7.84 7.84 0 01-1.176 4.127 7.961 7.961 0 01-1.946 2.153l-.044.033a7.811 7.811 0 01-.768.513l-.036.022a7.771 7.771 0 01-1.776.752c-.037.011-.075.019-.112.029a7.965 7.965 0 01-.828.174c-.053.009-.106.018-.16.025a7.745 7.745 0 01-.965.075c-.033 0-.063.006-.1.006-.151 0-.3-.015-.447-.023a7.857 7.857 0 01-3.614-1.113h-.008a7.966 7.966 0 01-2.63-2.585 7.854 7.854 0 01-1.209-4.183 7.916 7.916 0 017.911-7.917zm15.534 24.891l-4.548-7.877a3.9 3.9 0 01-.3.448 3.943 3.943 0 01-3.018 1.4h-.108l-.374-.01h-.016a.562.562 0 00-.52.346l-.15.357a3.949 3.949 0 01-3.649 2.422 3.965 3.965 0 01-.786-.088l4.668 8.085a2.259 2.259 0 002.44 1.079l.8-4.051a1.129 1.129 0 011.107-.91 1.114 1.114 0 01.365.061l3.87 1.318a2.27 2.27 0 00.219-2.58z"
        fill="currentColor"></path>
    </g>
  </symbol>
  <symbol xmlns="http://www.w3.org/2000/svg" viewBox="0 0 33.003 29.372" id="benefit_chart">
    <path
      d="M28.254 28.873V10.004l1.269-1.269 1.479 1.476 1.5 1.5v17.161zm-6.368 0v-14.1h.061a3.686 3.686 0 002.631-1.086l1.554-1.557v16.746zm-6.373 0V12.111l.529-.524 3.721 2.48v14.806zm-6.368 0V18.418l4.246-4.2v14.66zm-6.372 0v-5.055a3.633 3.633 0 001.948-1.021l2.3-2.273v8.349zM.967 21.297a1.593 1.593 0 010-2.253L14.452 5.681a1.6 1.6 0 012.009-.2l5.286 3.526 5.526-5.526L24.293.5h8.21v8.206l-2.98-2.977-1.269 1.269h0l-3.206 3.208h0l-1.976 1.976a1.59 1.59 0 01-2.01.2l-1.3-.867h0l-.807-.538-3.176-2.116-.268.263h0l-3.471 3.438h0l-2.9 2.875v-.005l-3.925 3.889h0l-2 1.98-.039.038a1.6 1.6 0 01-1.087.43 1.6 1.6 0 01-1.122-.472z"
      fill="currentColor" stroke="rgba(0,0,0,0)" stroke-miterlimit="10"></path>
  </symbol>
  <symbol xmlns="http://www.w3.org/2000/svg" viewBox="0 0 32 32" id="benefit_check">
    <g fill="currentColor">
      <path d="M16 32a16 16 0 1116-16 16.018 16.018 0 01-16 16zm0-29a13 13 0 1013 13A13.014 13.014 0 0016 3z"></path>
      <path
        d="M13.319 24.424a2 2 0 01-1.25-.439l-5.5-4.413a2 2 0 012.5-3.121l3.984 3.2 8.385-9.91a2 2 0 113.052 2.583l-9.642 11.4a2 2 0 01-1.529.7z">
      </path>
    </g>
  </symbol>
  <symbol xmlns="http://www.w3.org/2000/svg" viewBox="0 0 25.088 32" id="benefit_globe">
    <g fill="currentColor">
      <path
        d="M5.284 14.616a.629.629 0 00.025.106c.01.02.028.033.039.052a10.11 10.11 0 0013.235 5.291c.021-.009.04-.02.061-.03s.037-.01.055-.017c.062-.027.117-.065.176-.095a10.069 10.069 0 005.177-5.521l.007-.011.009-.024v-.015a10.069 10.069 0 00-.133-7.538l-.005-.011a10.059 10.059 0 00-5.1-5.224.71.71 0 00-.229-.17l-.013-.005a.691.691 0 00-.251-.045 10.077 10.077 0 00-6.927-.178 2.955 2.955 0 00-.636.181 2.967 2.967 0 00-.525.294 10.1 10.1 0 00-4.965 12.96zm5.953-11.855c.18-.076.364-.136.546-.2 1.028-.106 2.431.668 3.789 2.177a9.025 9.025 0 01-2.623 1.705 9.009 9.009 0 01-3.068.7c-.141-2.05.291-3.612 1.1-4.259.087-.038.167-.087.256-.123zm11.631 5.248a8.641 8.641 0 01.078 5.268 10.416 10.416 0 00-2.059-.373 17.891 17.891 0 00-.99-3.634zm-4.742 10.649c-1.021.434-2.628-.315-4.18-2.011a9.1 9.1 0 015.637-2.379c.135 2.287-.441 3.958-1.461 4.39zm1.3-5.763a10.5 10.5 0 00-6.351 2.68 16.509 16.509 0 01-1.609-2.724l7.115-3.02a16.423 16.423 0 01.837 3.066zm-8.514-1.346a16.539 16.539 0 01-.847-3.008 10.445 10.445 0 003.421-.8 10.4 10.4 0 002.968-1.912 16.575 16.575 0 011.575 2.7zm3.784-9.477a8.678 8.678 0 012.64.436 9.037 9.037 0 01-.785 1.172 10.173 10.173 0 00-1.863-1.608zm-5.09 10.031l-3.214 1.364a8.637 8.637 0 01-.023-5.346 10.494 10.494 0 002.259.426 18.127 18.127 0 00.97 3.556zm-2.662 2.668l3.215-1.365a18.061 18.061 0 001.9 3.208 10.406 10.406 0 00-1.268 1.925 8.637 8.637 0 01-3.855-3.768zm5.137 4.284a9 9 0 01.882-1.346 9.842 9.842 0 002.036 1.72 8.672 8.672 0 01-2.931-.374zm8.818-2.273a10.094 10.094 0 00.148-2.472 9.011 9.011 0 011.391.257 8.681 8.681 0 01-1.547 2.215zm1.418-10.075l-2.969 1.26a18.038 18.038 0 00-1.889-3.184 10.445 10.445 0 001.165-1.743 8.646 8.646 0 013.685 3.667zM8.616 4.497a9.935 9.935 0 00-.163 2.607 9.027 9.027 0 01-1.555-.3 8.673 8.673 0 011.718-2.307z"
        stroke="currentColor" stroke-width=".5"></path>
      <path
        d="M14.521 25.087a14.3 14.3 0 0010.141-4.3 1.486 1.486 0 00-.019-2.1 1.486 1.486 0 00-2.1.019 11.345 11.345 0 01-8.049 3.417 11.286 11.286 0 01-8.108-3.275 11.345 11.345 0 01-3.417-8.051 11.348 11.348 0 013.28-8.113l.141-.141a1.485 1.485 0 00.01-2.1 1.484 1.484 0 00-2.1-.01l-.174.174A14.3 14.3 0 000 10.822a14.3 14.3 0 004.305 10.141 14.289 14.289 0 007.082 3.806v1.294H9.734a1.979 1.979 0 00-1.979 1.979v.99h-.247a1.979 1.979 0 00-1.979 1.979v.99h14.845v-.99a1.979 1.979 0 00-1.979-1.979h-.247v-.99a1.979 1.979 0 00-1.979-1.979h-1.652v-.975z">
      </path>
    </g>
  </symbol>
  <symbol xmlns="http://www.w3.org/2000/svg" viewBox="0 0 21 33.003" id="benefit_lightbulb">
    <path
      d="M12 32.5H9a2 2 0 01-2-2v-.266A2.006 2.006 0 016 28.5v-1a2 2 0 012-2h5a2 2 0 012 2v1a2.007 2.007 0 01-1 1.733v.267a2 2 0 01-2 2zm.5-8h-4a2.01 2.01 0 01-1.993-1.846c-.228-.844-.977-2.674-3.431-5.456a10 10 0 1114.846 0c-2.671 3.131-2.73 3.32-3.45 5.642A1.994 1.994 0 0112.5 24.5zM9.886 3.033a1 1 0 000 2 5.577 5.577 0 015.571 5.567 1 1 0 102 0 7.579 7.579 0 00-7.571-7.567z"
      fill="currentColor" stroke="rgba(0,0,0,0)" stroke-miterlimit="10"></path>
  </symbol>
  <symbol xmlns="http://www.w3.org/2000/svg" viewBox="0 0 27.238 32" id="benefit_shield">
    <g fill="currentColor">
      <path
        d="M13.619 32a1.464 1.464 0 01-.357-.045C-.058 28.542-.001 17.055.001 16.945V5.321a1.438 1.438 0 011-1.37L13.182.069a1.415 1.415 0 01.873 0l12.182 3.882a1.438 1.438 0 011 1.37V16.97c0 .1-.058 11.6-13.262 14.985a1.451 1.451 0 01-.356.045zM2.874 6.372v10.6c0 .4.035 9.17 10.744 12.1 10.618-2.914 10.744-11.72 10.744-12.1v-10.6L13.618 2.947z">
      </path>
      <path d="M13.62 6.161L5.399 8.784v7.872s-.131 7.041 8.223 9.184c8.278-2.123 8.222-9.184 8.222-9.184V8.784z">
      </path>
    </g>
  </symbol>
</svg>