<svg xmlns="http://www.w3.org/2000/svg" width="32" height="30.794" viewBox="0 0 32 30.794">
  <g id="benefit_thumbsup" transform="translate(-16169.355 -8577.774)">
    <path id="Subtraction_3" data-name="Subtraction 3" d="M7,16H2a2,2,0,0,1-2-2V2A2,2,0,0,1,2,0H7A2,2,0,0,1,9,2V14A2,2,0,0,1,7,16ZM4.5,11A1.5,1.5,0,1,0,6,12.5,1.5,1.5,0,0,0,4.5,11Z" transform="translate(16169.355 8591.092)" fill="#e31b23"/>
    <path id="Union_4" data-name="Union 4" d="M9.113,30.7l-7.1-2.128H2a2,2,0,0,1-2-2V15.464a2,2,0,0,1,.734-1.548l4.286-6L6.291,1.5A1.884,1.884,0,0,1,8.5.034a4.631,4.631,0,0,1,3.728,5.423l-1.158,5.848H20a2,2,0,0,1,2,2v1.4a2,2,0,0,1-2,2h0a2,2,0,0,1,2,2v1.4A2,2,0,0,1,20.621,22a1.99,1.99,0,0,1,.279,1.019v1.4a2,2,0,0,1-1.379,1.9,1.99,1.99,0,0,1,.279,1.019v1.4a2,2,0,0,1-2,2H10.248A2.16,2.16,0,0,1,9.113,30.7Z" transform="translate(16179.355 8577.774)" fill="#e31b23"/>
  </g>
</svg>
