<?xml version="1.0" encoding="utf-8"?>
<!-- Generator: Adobe Illustrator 24.2.3, SVG Export Plug-In . SVG Version: 6.00 Build 0)  -->
<svg version="1.1" id="Layer_1" xmlns="http://www.w3.org/2000/svg" xmlns:xlink="http://www.w3.org/1999/xlink" x="0px" y="0px"
	 viewBox="0 0 7438.3 2559.2" style="enable-background:new 0 0 7438.3 2559.2;" xml:space="preserve">
<style type="text/css">
	.st0{fill:#E31B23;}
	.st1{fill:#414042;}
	.st2{font-family:'DroidSans';}
	.st3{font-size:438.9555px;}
</style>
<g id="RSS_1_">
</g>
<g id="RSS">
</g>
<g id="RSS_2_">
</g>
<g id="RSS_3_">
</g>
<g id="Bubble_1">
</g>
<g id="Regal_Vector_Pack_04">
</g>
<g>
	<path class="st0" d="M266.4,616.2v348c42.9-44.5,86.5-78.6,131-102.3c44.5-23.6,99.6-35.5,165.3-35.5c75.6,0,142,17.9,199,53.8
		c57,35.9,101.2,87.9,132.7,156.1c31.4,68.1,47.2,149,47.2,242.5c0,69-8.8,132.3-26.3,189.9c-17.6,57.5-43,107.5-76.4,149.8
		c-33.4,42.3-73.8,75-121.4,98.1c-47.6,23-100,34.6-157.3,34.6c-35.1,0-68-4.2-98.9-12.5c-30.9-8.4-57.2-19.3-78.9-33
		c-21.7-13.6-40.2-27.7-55.5-42.1c-15.3-14.5-35.5-36.2-60.5-65.1v22.5c0,42.8-10.3,75.2-30.9,97.2c-20.6,22-46.8,33-78.4,33
		c-32.3,0-58-11-77.2-33c-19.2-21.9-28.8-54.3-28.8-97.2V626.3c0-46.2,9.3-81.1,28-104.8c18.7-23.6,44.7-35.4,78-35.4
		c35,0,62,11.2,80.9,33.8C257,542.4,266.4,574.5,266.4,616.2z M277.3,1293.1c0,90.7,20.7,160.4,62.2,209.1
		c41.5,48.6,95.8,73,163.2,73c57.3,0,106.7-24.9,148.1-74.7c41.4-49.8,62.2-121.1,62.2-214.1c0-60.1-8.6-111.8-25.8-155.2
		c-17.3-43.4-41.8-76.9-73.5-100.5c-31.7-23.7-68.7-35.5-111-35.5c-43.4,0-82.1,11.9-116,35.5c-34,23.6-60.7,57.9-80.1,102.6
		C287,1178,277.3,1231.3,277.3,1293.1z"/>
	<path class="st0" d="M1650.8,1622.7v-29.2c-27.3,34.5-55.9,63.4-85.9,86.8c-30.1,23.4-62.9,40.8-98.5,52.2
		c-35.6,11.4-76.2,17.1-121.9,17.1c-55.1,0-104.5-11.4-148.1-34.2c-43.7-22.8-77.5-54.3-101.4-94.3c-28.3-48.4-42.5-118-42.5-208.6
		V960.9c0-45.6,10.3-79.7,30.9-102.2c20.6-22.5,47.9-33.8,81.8-33.8c34.5,0,62.3,11.4,83.5,34.2c21.1,22.8,31.7,56.8,31.7,101.8
		v364.7c0,52.9,4.5,97.2,13.4,133.1c8.9,35.9,24.9,64,48,84.3c23.1,20.3,54.4,30.5,93.9,30.5c38.4,0,74.6-11.4,108.5-34.2
		c33.9-22.8,58.7-52.6,74.3-89.3c12.8-32.3,19.2-102.9,19.2-212V960.9c0-45.1,10.6-79,31.7-101.8c21.2-22.8,48.7-34.2,82.7-34.2
		c33.9,0,61.2,11.3,81.7,33.8c20.6,22.5,30.9,56.6,30.9,102.2V1621c0,43.4-9.9,75.9-29.7,97.6c-19.7,21.7-45.2,32.6-76.3,32.6
		c-31.2,0-56.9-11.3-77.2-33.8C1660.9,1694.9,1650.8,1663.3,1650.8,1622.7z"/>
	<path class="st0" d="M2048.7,1612.7v-988c0-45.6,10.1-80.2,30.5-103.5c20.3-23.4,47.7-35,82.2-35c34.5,0,62.3,11.6,83.4,34.6
		c21.1,23.1,31.7,57.7,31.7,103.9v988c0,46.2-10.7,80.9-32.1,104c-21.4,23-49.1,34.6-83,34.6c-33.4,0-60.5-12-81.4-35.9
		C2059.1,1691.4,2048.7,1657.2,2048.7,1612.7z"/>
	<path class="st0" d="M2469.2,1612.7v-988c0-45.6,10.1-80.2,30.4-103.5c20.3-23.4,47.7-35,82.2-35c34.5,0,62.3,11.6,83.5,34.6
		c21.1,23.1,31.7,57.7,31.7,103.9v988c0,46.2-10.7,80.9-32.2,104c-21.4,23-49.1,34.6-83,34.6c-33.4,0-60.5-12-81.4-35.9
		C2479.6,1691.4,2469.2,1657.2,2469.2,1612.7z"/>
	<path class="st0" d="M3623.2,1453.3c0,62.9-15.3,116.7-45.9,161.5c-30.6,44.8-75.8,78.7-135.6,101.8
		c-59.8,23-132.6,34.6-218.3,34.6c-81.8,0-151.9-12.5-210.3-37.5c-58.4-25.1-101.6-56.4-129.4-93.9c-27.8-37.6-41.7-75.3-41.7-113.1
		c0-25.1,8.9-46.4,26.7-64.3c17.8-17.8,40.3-26.7,67.6-26.7c23.9,0,42.3,5.9,55.1,17.5c12.8,11.7,25.1,28.1,36.7,49.3
		c23.4,40.6,51.3,70.9,83.9,90.9c32.5,20.1,76.9,30.1,133.1,30.1c45.7,0,83.1-10.2,112.3-30.5c29.2-20.3,43.8-43.5,43.8-69.6
		c0-40.1-15.2-69.3-45.5-87.6c-30.3-18.4-80.2-35.9-149.8-52.6c-78.4-19.5-142.3-39.9-191.5-61.3c-49.3-21.4-88.6-49.7-118.1-84.7
		c-29.5-35.1-44.3-78.2-44.3-129.4c0-45.6,13.6-88.8,40.9-129.4c27.3-40.6,67.5-73,120.6-97.2c53.1-24.2,117.3-36.3,192.4-36.3
		c58.9,0,112,6.1,159,18.4c47,12.2,86.2,28.6,117.7,49.2c31.4,20.6,55.4,43.4,71.8,68.5c16.4,25,24.6,49.5,24.6,73.4
		c0,26.2-8.8,47.5-26.3,64.2c-17.5,16.7-42.4,25-74.7,25c-23.3,0-43.2-6.6-59.7-20c-16.4-13.3-35.2-33.4-56.3-60
		c-17.3-22.3-37.6-40.1-60.9-53.4c-23.4-13.4-55.1-20-95.1-20c-41.2,0-75.4,8.7-102.6,26.3c-27.3,17.6-40.9,39.4-40.9,65.5
		c0,23.9,10,43.5,30,58.8c20,15.3,47,28,80.9,38c33.9,10,80.7,22.2,140.2,36.7c70.7,17.2,128.4,37.8,173.2,61.8
		c44.8,23.9,78.7,52.1,101.9,84.7C3611.6,1374.4,3623.2,1411.6,3623.2,1453.3z"/>
	<path class="st0" d="M4409.2,1344h-445.7c0.5,51.7,11,97.4,31.3,136.9c20.3,39.5,47.3,69.2,80.9,89.3c33.7,20,70.8,30,111.4,30
		c27.3,0,52.2-3.2,74.7-9.6c22.6-6.4,44.4-16.4,65.5-30c21.1-13.6,40.6-28.2,58.4-43.8c17.8-15.6,40.9-36.7,69.3-63.4
		c11.7-10,28.4-15,50.1-15c23.3,0,42.2,6.4,56.7,19.2c14.5,12.8,21.7,30.9,21.7,54.2c0,20.6-8.1,44.7-24.2,72.2
		c-16.1,27.5-40.5,54-73,79.3c-32.6,25.3-73.5,46.3-122.7,63c-49.3,16.7-105.9,25.1-169.8,25.1c-146.3,0-260.1-41.7-341.3-125.2
		c-81.3-83.4-121.9-196.7-121.9-339.7c0-67.3,10-129.8,30.1-187.4c20-57.6,49.2-107,87.6-148.1c38.4-41.2,85.7-72.8,141.9-94.7
		c56.2-22,118.5-33,186.9-33c89,0,165.4,18.8,229.1,56.3c63.7,37.6,111.4,86.1,143.1,145.7c31.7,59.5,47.6,120.1,47.6,181.9
		c0,57.3-16.4,94.4-49.3,111.4C4514.8,1335.5,4468.7,1344,4409.2,1344z M3963.5,1214.6h413.1c-5.5-77.9-26.6-136.2-63-174.9
		c-36.4-38.6-84.4-58-144-58c-56.7,0-103.3,19.6-139.8,58.8C3993.4,1079.8,3971.3,1137.8,3963.5,1214.6z"/>
	<path class="st0" d="M4912.2,1779.6l20.9-50.9l-280.4-706c-17.2-40.6-25.9-70.1-25.9-88.5c0-19.5,5-37.5,15-54.3
		c10-16.7,23.8-30,41.3-40.1c17.5-10,35.7-15,54.7-15c32.8,0,57.6,10.4,74.3,31.3c16.7,20.8,31.4,50.7,44.2,89.7l192.8,560.8
		l182.8-521.6c14.5-42.3,27.6-75.4,39.2-99.3c11.7-23.9,24.1-40.1,37.2-48.4c13.1-8.4,31.6-12.5,55.5-12.5
		c17.3,0,33.8,4.6,49.7,13.8c15.8,9.2,28.1,21.6,36.7,37.2c8.7,15.6,13,32,13,49.2c-2.2,10.5-5.9,25.6-10.9,45.1
		c-5,19.5-11.1,39.2-18.3,59.3l-297.1,777.8c-25.6,68.5-50.6,122.1-75.1,161.1c-24.5,38.9-56.9,68.8-97.3,89.7
		c-40.4,20.9-94.7,31.3-163.1,31.3c-66.8,0-116.9-7.3-150.2-21.7c-33.4-14.5-50.1-40.9-50.1-79.3c0-26.2,7.9-46.3,23.8-60.5
		c15.9-14.2,39.4-21.3,70.6-21.3c12.2,0,24.2,1.7,35.9,5c14.5,3.3,27,5,37.6,5c26.1,0,46.7-3.9,61.7-11.7
		c15-7.8,28.5-21.3,40.5-40.5C4882.9,1845.1,4896.6,1816.9,4912.2,1779.6z"/>
	<path class="st0" d="M6351.7,1457.5c-14.5-12.8-33.4-19.2-56.8-19.2c-21.7,0-38.4,5-50.1,15c-28.4,26.7-51.4,47.8-69.2,63.4
		c-17.8,15.5-37.3,30.2-58.4,43.8c-21.2,13.7-43,23.7-65.5,30c-22.5,6.5-47.4,9.6-74.7,9.6c-40.6,0-77.8-10-111.4-30
		c-33.7-20-60.6-49.8-81-89.3c-20.3-39.5-30.8-85.1-31.3-136.9h445.6c59.6,0,105.7-8.5,138.6-25.5c22.2-11.5,36.9-32.2,44.1-62.1
		l-227-397.8c-54.6-23.5-117.1-35.4-187.6-35.4c-68.4,0-130.7,11-186.9,33c-56.2,22-103.4,53.5-141.9,94.7
		c-38.4,41.2-67.6,90.5-87.6,148.1c-20,57.6-30.1,120-30.1,187.4c0,143,40.6,256.2,121.9,339.7c81.2,83.5,195,125.2,341.3,125.2
		c64,0,120.6-8.3,169.8-25.1c49.3-16.7,90.1-37.7,122.7-63c32.6-25.3,56.9-51.8,73.1-79.3c16.1-27.5,24.2-51.6,24.2-72.2
		C6373.4,1488.4,6366.1,1470.3,6351.7,1457.5z M5819.6,1040.6c36.5-39.2,83.1-58.8,139.8-58.8c59.5,0,107.5,19.3,144,58
		c36.4,38.7,57.4,97,63,174.9h-413.1C5761.1,1137.8,5783.2,1079.8,5819.6,1040.6z"/>
	<text transform="matrix(1 0 0 1 31.5498 2261.1387)" class="st1 st2 st3">location software</text>
	<path class="st0" d="M6830.9,38c-316.5,0-573,256.6-573,573.1c0,120.8,37.4,232.7,101.2,325.1l227.3,393.6l244.6,423.6l244.5-423.6
		L7302.9,936c63.7-92.3,101.1-204.2,101.1-324.9C7404,294.6,7147.4,38,6830.9,38z M6830.9,918.8c-197.4,0-357.4-160-357.4-357.4
		c0-197.4,160-357.4,357.4-357.4c197.4,0,357.4,160,357.4,357.4C7188.3,758.8,7028.3,918.8,6830.9,918.8z"/>
	<path class="st0" d="M7032.3,561.4c0,111.2-90.1,201.3-201.4,201.3c-111.2,0-201.3-90.1-201.3-201.3
		c0-111.2,90.1-201.3,201.3-201.3C6942.1,360.1,7032.3,450.2,7032.3,561.4z"/>
</g>
</svg>
