<?xml version="1.0" encoding="utf-8"?>
<!-- Generator: Adobe Illustrator 25.2.1, SVG Export Plug-In . SVG Version: 6.00 Build 0)  -->
<svg version="1.1" id="Layer_1" xmlns="http://www.w3.org/2000/svg" xmlns:xlink="http://www.w3.org/1999/xlink" x="0px" y="0px"
	 viewBox="0 0 7438.3 2559.2" style="enable-background:new 0 0 7438.3 2559.2;" xml:space="preserve">
<style type="text/css">
	.st0{fill:#E31B23;}
	.st1{enable-background:new    ;}
	.st2{fill:#414042;}
</style>
<g id="RSS_1_">
</g>
<g id="RSS">
</g>
<g id="RSS_2_">
</g>
<g id="RSS_3_">
</g>
<g id="Bubble_1">
</g>
<g id="Regal_Vector_Pack_04">
</g>
<g>
	<path class="st0" d="M266.4,616.2v348c42.9-44.5,86.5-78.6,131-102.3c44.5-23.6,99.6-35.5,165.3-35.5c75.6,0,142,17.9,199,53.8
		c57,35.9,101.2,87.9,132.7,156.1c31.4,68.1,47.2,149,47.2,242.5c0,69-8.8,132.3-26.3,189.9c-17.6,57.5-43,107.5-76.4,149.8
		s-73.8,75-121.4,98.1c-47.6,23-100,34.6-157.3,34.6c-35.1,0-68-4.2-98.9-12.5c-30.9-8.4-57.2-19.3-78.9-33
		c-21.7-13.6-40.2-27.7-55.5-42.1c-15.3-14.5-35.5-36.2-60.5-65.1v22.5c0,42.8-10.3,75.2-30.9,97.2s-46.8,33-78.4,33
		c-32.3,0-58-11-77.2-33c-19.2-21.9-28.8-54.3-28.8-97.2V626.3c0-46.2,9.3-81.1,28-104.8c18.7-23.6,44.7-35.4,78-35.4
		c35,0,62,11.2,80.9,33.8C257,542.4,266.4,574.5,266.4,616.2z M277.3,1293.1c0,90.7,20.7,160.4,62.2,209.1
		c41.5,48.6,95.8,73,163.2,73c57.3,0,106.7-24.9,148.1-74.7c41.4-49.8,62.2-121.1,62.2-214.1c0-60.1-8.6-111.8-25.8-155.2
		c-17.3-43.4-41.8-76.9-73.5-100.5c-31.7-23.7-68.7-35.5-111-35.5c-43.4,0-82.1,11.9-116,35.5c-34,23.6-60.7,57.9-80.1,102.6
		C287,1178,277.3,1231.3,277.3,1293.1z"/>
	<path class="st0" d="M1650.8,1622.7v-29.2c-27.3,34.5-55.9,63.4-85.9,86.8c-30.1,23.4-62.9,40.8-98.5,52.2
		c-35.6,11.4-76.2,17.1-121.9,17.1c-55.1,0-104.5-11.4-148.1-34.2c-43.7-22.8-77.5-54.3-101.4-94.3c-28.3-48.4-42.5-118-42.5-208.6
		V960.9c0-45.6,10.3-79.7,30.9-102.2s47.9-33.8,81.8-33.8c34.5,0,62.3,11.4,83.5,34.2c21.1,22.8,31.7,56.8,31.7,101.8v364.7
		c0,52.9,4.5,97.2,13.4,133.1s24.9,64,48,84.3s54.4,30.5,93.9,30.5c38.4,0,74.6-11.4,108.5-34.2c33.9-22.8,58.7-52.6,74.3-89.3
		c12.8-32.3,19.2-102.9,19.2-212V960.9c0-45.1,10.6-79,31.7-101.8c21.2-22.8,48.7-34.2,82.7-34.2c33.9,0,61.2,11.3,81.7,33.8
		c20.6,22.5,30.9,56.6,30.9,102.2V1621c0,43.4-9.9,75.9-29.7,97.6c-19.7,21.7-45.2,32.6-76.3,32.6c-31.2,0-56.9-11.3-77.2-33.8
		C1660.9,1694.9,1650.8,1663.3,1650.8,1622.7z"/>
	<path class="st0" d="M2048.7,1612.7v-988c0-45.6,10.1-80.2,30.5-103.5c20.3-23.4,47.7-35,82.2-35s62.3,11.6,83.4,34.6
		c21.1,23.1,31.7,57.7,31.7,103.9v988c0,46.2-10.7,80.9-32.1,104c-21.4,23-49.1,34.6-83,34.6c-33.4,0-60.5-12-81.4-35.9
		C2059.1,1691.4,2048.7,1657.2,2048.7,1612.7z"/>
	<path class="st0" d="M2469.2,1612.7v-988c0-45.6,10.1-80.2,30.4-103.5c20.3-23.4,47.7-35,82.2-35s62.3,11.6,83.5,34.6
		c21.1,23.1,31.7,57.7,31.7,103.9v988c0,46.2-10.7,80.9-32.2,104c-21.4,23-49.1,34.6-83,34.6c-33.4,0-60.5-12-81.4-35.9
		C2479.6,1691.4,2469.2,1657.2,2469.2,1612.7z"/>
	<path class="st0" d="M3623.2,1453.3c0,62.9-15.3,116.7-45.9,161.5c-30.6,44.8-75.8,78.7-135.6,101.8
		c-59.8,23-132.6,34.6-218.3,34.6c-81.8,0-151.9-12.5-210.3-37.5c-58.4-25.1-101.6-56.4-129.4-93.9c-27.8-37.6-41.7-75.3-41.7-113.1
		c0-25.1,8.9-46.4,26.7-64.3c17.8-17.8,40.3-26.7,67.6-26.7c23.9,0,42.3,5.9,55.1,17.5c12.8,11.7,25.1,28.1,36.7,49.3
		c23.4,40.6,51.3,70.9,83.9,90.9c32.5,20.1,76.9,30.1,133.1,30.1c45.7,0,83.1-10.2,112.3-30.5s43.8-43.5,43.8-69.6
		c0-40.1-15.2-69.3-45.5-87.6c-30.3-18.4-80.2-35.9-149.8-52.6c-78.4-19.5-142.3-39.9-191.5-61.3c-49.3-21.4-88.6-49.7-118.1-84.7
		c-29.5-35.1-44.3-78.2-44.3-129.4c0-45.6,13.6-88.8,40.9-129.4c27.3-40.6,67.5-73,120.6-97.2s117.3-36.3,192.4-36.3
		c58.9,0,112,6.1,159,18.4c47,12.2,86.2,28.6,117.7,49.2c31.4,20.6,55.4,43.4,71.8,68.5c16.4,25,24.6,49.5,24.6,73.4
		c0,26.2-8.8,47.5-26.3,64.2s-42.4,25-74.7,25c-23.3,0-43.2-6.6-59.7-20c-16.4-13.3-35.2-33.4-56.3-60
		c-17.3-22.3-37.6-40.1-60.9-53.4c-23.4-13.4-55.1-20-95.1-20c-41.2,0-75.4,8.7-102.6,26.3c-27.3,17.6-40.9,39.4-40.9,65.5
		c0,23.9,10,43.5,30,58.8s47,28,80.9,38s80.7,22.2,140.2,36.7c70.7,17.2,128.4,37.8,173.2,61.8c44.8,23.9,78.7,52.1,101.9,84.7
		C3611.6,1374.4,3623.2,1411.6,3623.2,1453.3z"/>
	<path class="st0" d="M4409.2,1344h-445.7c0.5,51.7,11,97.4,31.3,136.9s47.3,69.2,80.9,89.3c33.7,20,70.8,30,111.4,30
		c27.3,0,52.2-3.2,74.7-9.6c22.6-6.4,44.4-16.4,65.5-30s40.6-28.2,58.4-43.8c17.8-15.6,40.9-36.7,69.3-63.4c11.7-10,28.4-15,50.1-15
		c23.3,0,42.2,6.4,56.7,19.2c14.5,12.8,21.7,30.9,21.7,54.2c0,20.6-8.1,44.7-24.2,72.2s-40.5,54-73,79.3
		c-32.6,25.3-73.5,46.3-122.7,63c-49.3,16.7-105.9,25.1-169.8,25.1c-146.3,0-260.1-41.7-341.3-125.2
		c-81.3-83.4-121.9-196.7-121.9-339.7c0-67.3,10-129.8,30.1-187.4c20-57.6,49.2-107,87.6-148.1c38.4-41.2,85.7-72.8,141.9-94.7
		c56.2-22,118.5-33,186.9-33c89,0,165.4,18.8,229.1,56.3c63.7,37.6,111.4,86.1,143.1,145.7c31.7,59.5,47.6,120.1,47.6,181.9
		c0,57.3-16.4,94.4-49.3,111.4C4514.8,1335.5,4468.7,1344,4409.2,1344z M3963.5,1214.6h413.1c-5.5-77.9-26.6-136.2-63-174.9
		c-36.4-38.6-84.4-58-144-58c-56.7,0-103.3,19.6-139.8,58.8C3993.4,1079.8,3971.3,1137.8,3963.5,1214.6z"/>
	<path class="st0" d="M4912.2,1779.6l20.9-50.9l-280.4-706c-17.2-40.6-25.9-70.1-25.9-88.5c0-19.5,5-37.5,15-54.3
		c10-16.7,23.8-30,41.3-40.1c17.5-10,35.7-15,54.7-15c32.8,0,57.6,10.4,74.3,31.3c16.7,20.8,31.4,50.7,44.2,89.7l192.8,560.8
		L5231.9,985c14.5-42.3,27.6-75.4,39.2-99.3c11.7-23.9,24.1-40.1,37.2-48.4c13.1-8.4,31.6-12.5,55.5-12.5c17.3,0,33.8,4.6,49.7,13.8
		c15.8,9.2,28.1,21.6,36.7,37.2c8.7,15.6,13,32,13,49.2c-2.2,10.5-5.9,25.6-10.9,45.1s-11.1,39.2-18.3,59.3l-297.1,777.8
		c-25.6,68.5-50.6,122.1-75.1,161.1c-24.5,38.9-56.9,68.8-97.3,89.7c-40.4,20.9-94.7,31.3-163.1,31.3c-66.8,0-116.9-7.3-150.2-21.7
		c-33.4-14.5-50.1-40.9-50.1-79.3c0-26.2,7.9-46.3,23.8-60.5s39.4-21.3,70.6-21.3c12.2,0,24.2,1.7,35.9,5c14.5,3.3,27,5,37.6,5
		c26.1,0,46.7-3.9,61.7-11.7c15-7.8,28.5-21.3,40.5-40.5C4882.9,1845.1,4896.6,1816.9,4912.2,1779.6z"/>
	<path class="st0" d="M6351.7,1457.5c-14.5-12.8-33.4-19.2-56.8-19.2c-21.7,0-38.4,5-50.1,15c-28.4,26.7-51.4,47.8-69.2,63.4
		c-17.8,15.5-37.3,30.2-58.4,43.8c-21.2,13.7-43,23.7-65.5,30c-22.5,6.5-47.4,9.6-74.7,9.6c-40.6,0-77.8-10-111.4-30
		c-33.7-20-60.6-49.8-81-89.3c-20.3-39.5-30.8-85.1-31.3-136.9h445.6c59.6,0,105.7-8.5,138.6-25.5c22.2-11.5,36.9-32.2,44.1-62.1
		l-227-397.8c-54.6-23.5-117.1-35.4-187.6-35.4c-68.4,0-130.7,11-186.9,33c-56.2,22-103.4,53.5-141.9,94.7
		c-38.4,41.2-67.6,90.5-87.6,148.1s-30.1,120-30.1,187.4c0,143,40.6,256.2,121.9,339.7c81.2,83.5,195,125.2,341.3,125.2
		c64,0,120.6-8.3,169.8-25.1c49.3-16.7,90.1-37.7,122.7-63s56.9-51.8,73.1-79.3c16.1-27.5,24.2-51.6,24.2-72.2
		C6373.4,1488.4,6366.1,1470.3,6351.7,1457.5z M5819.6,1040.6c36.5-39.2,83.1-58.8,139.8-58.8c59.5,0,107.5,19.3,144,58
		c36.4,38.7,57.4,97,63,174.9h-413.1C5761.1,1137.8,5783.2,1079.8,5819.6,1040.6z"/>
	<g class="st1">
		<path class="st2" d="M107.9,2261.1h-39v-333.5h39V2261.1z"/>
		<path class="st2" d="M374.3,2143c0,19.6-2.4,37-7.2,52.2c-4.8,15.2-11.6,28-20.6,38.4c-8.9,10.4-19.8,18.3-32.5,23.7
			c-12.7,5.4-27,8.1-42.9,8.1c-14.7,0-28.3-2.7-40.7-8.1c-12.4-5.4-23.2-13.3-32.3-23.7c-9.1-10.4-16.1-23.1-21.2-38.4
			c-5.1-15.2-7.6-32.6-7.6-52.2c0-19.4,2.4-36.7,7.2-51.8c4.8-15.1,11.6-27.8,20.5-38.2c8.9-10.4,19.7-18.2,32.5-23.6
			c12.8-5.4,27.1-8,43-8c14.7,0,28.3,2.7,40.7,8c12.4,5.4,23.2,13.2,32.3,23.6c9.1,10.4,16.1,23.1,21.2,38.2
			C371.7,2106.4,374.3,2123.6,374.3,2143z M209.7,2143c0,29.9,4.9,52.3,14.7,67.4c9.8,15.1,25.7,22.6,47.7,22.6
			c22,0,37.8-7.5,47.5-22.6c9.6-15.1,14.5-37.5,14.5-67.4c0-29.9-4.9-52.2-14.7-67c-9.8-14.8-25.7-22.2-47.7-22.2
			c-22,0-37.8,7.4-47.5,22.2S209.7,2113.2,209.7,2143z"/>
		<path class="st2" d="M525.8,2265.4c-14.4,0-27.9-2.3-40.5-6.8c-12.6-4.5-23.5-11.6-32.8-21.4c-9.3-9.8-16.6-22.3-21.9-37.5
			c-5.3-15.2-7.9-33.5-7.9-55c0-22.4,2.7-41.5,8.1-57.1c5.4-15.6,12.9-28.4,22.4-38.2c9.5-9.8,20.6-16.9,33.3-21.3
			c12.7-4.4,26.4-6.6,40.9-6.6c11.1,0,22,1.2,32.7,3.6c10.6,2.4,19.5,5.4,26.7,9l-11.6,33c-3.3-1.4-6.9-2.8-10.9-4.2
			c-4-1.4-8.1-2.6-12.4-3.6c-4.3-1.1-8.5-1.9-12.6-2.6c-4.1-0.6-8.1-1-11.8-1c-22.4,0-38.8,7.2-49.1,21.5s-15.4,36.7-15.4,67
			c0,30.2,5.2,52.2,15.5,66.1c10.4,13.9,26.1,20.9,47.3,20.9c11.6,0,22-1.3,31.4-4c9.4-2.6,17.9-5.8,25.6-9.3v34.7
			c-7.7,4.1-16,7.3-24.8,9.4C549.3,2264.4,538.5,2265.4,525.8,2265.4z"/>
		<path class="st2" d="M771.6,2261.1l-7.9-32.6H762c-4.7,6.4-9.4,12-14.1,16.6c-4.7,4.6-9.9,8.5-15.4,11.5c-5.6,3-11.8,5.2-18.6,6.6
			c-6.9,1.4-14.8,2.1-23.8,2.1c-9.9,0-18.9-1.4-27.2-4.2c-8.3-2.8-15.5-7.1-21.5-12.9c-6.1-5.8-10.8-13.1-14.3-21.9
			c-3.4-8.8-5.1-19.2-5.1-31.2c0-23.4,8.3-41.4,24.8-54c16.5-12.6,41.6-19.4,75.3-20.6l39.4-1.5v-14.8c0-9.6-1-17.6-3.1-24
			c-2.1-6.4-5.1-11.6-9-15.5c-3.9-3.9-8.8-6.8-14.6-8.5s-12.4-2.6-19.8-2.6c-11.9,0-22.9,1.7-33.1,5.1c-10.2,3.4-20,7.6-29.5,12.4
			l-13.7-29.4c10.6-5.7,22.4-10.6,35.4-14.6c13-4,26.6-6,40.9-6c14.6,0,27.2,1.5,37.8,4.4c10.6,2.9,19.4,7.6,26.4,13.9
			c6.9,6.4,12.1,14.5,15.5,24.3s5.1,21.8,5.1,35.8v161.2H771.6z M700.1,2233.9c8.7,0,16.8-1.4,24.2-4.1c7.4-2.7,13.9-6.8,19.3-12.3
			c5.4-5.5,9.7-12.4,12.8-20.8c3.1-8.4,4.6-18.2,4.6-29.5V2146l-30.6,1.5c-12.9,0.6-23.7,2-32.4,4.3c-8.7,2.3-15.7,5.5-20.9,9.5
			c-5.2,4.1-9,9-11.3,14.8c-2.3,5.8-3.4,12.3-3.4,19.6c0,13.1,3.5,22.8,10.4,28.9C679.7,2230.8,688.8,2233.9,700.1,2233.9z"/>
		<path class="st2" d="M943.1,2233.5c2.6,0,5.5-0.1,8.7-0.4c3.2-0.3,6.3-0.6,9.3-1.1s5.8-0.9,8.3-1.5c2.5-0.6,4.4-1.1,5.7-1.5v29.6
			c-1.9,0.9-4.2,1.7-7.1,2.6c-2.9,0.9-6,1.6-9.4,2.3c-3.4,0.6-7,1.1-10.7,1.5c-3.7,0.4-7.4,0.5-10.9,0.5c-8.9,0-17.1-1.1-24.6-3.4
			c-7.6-2.3-14.1-6.2-19.6-11.8c-5.5-5.6-9.8-13.1-13-22.6c-3.1-9.5-4.7-21.5-4.7-35.9v-136.5h-33.2v-17.4l33.2-16.7l16.7-49.3h22.5
			v54h59.2v29.4h-59.2v136.5c0,13.9,2.3,24.3,6.8,31.3C925.4,2230,932.8,2233.5,943.1,2233.5z"/>
		<path class="st2" d="M1017.7,1962.1c0-8.6,2.2-14.8,6.5-18.6c4.4-3.9,9.8-5.8,16.2-5.8c3.1,0,6.1,0.5,8.9,1.4
			c2.8,0.9,5.2,2.4,7.3,4.4c2.1,2,3.7,4.5,4.9,7.6c1.2,3.1,1.8,6.8,1.8,11c0,8.3-2.2,14.5-6.8,18.5s-9.9,6.1-16.2,6.1
			c-6.4,0-11.8-2-16.2-6C1019.9,1976.8,1017.7,1970.6,1017.7,1962.1z M1059.7,2261.1h-39v-235.3h39V2261.1z"/>
		<path class="st2" d="M1326.1,2143c0,19.6-2.4,37-7.2,52.2c-4.8,15.2-11.6,28-20.6,38.4c-8.9,10.4-19.8,18.3-32.5,23.7
			c-12.7,5.4-27,8.1-42.9,8.1c-14.7,0-28.3-2.7-40.7-8.1s-23.2-13.3-32.3-23.7c-9.1-10.4-16.1-23.1-21.2-38.4
			c-5.1-15.2-7.6-32.6-7.6-52.2c0-19.4,2.4-36.7,7.2-51.8c4.8-15.1,11.6-27.8,20.5-38.2c8.9-10.4,19.7-18.2,32.5-23.6
			c12.8-5.4,27.1-8,43-8c14.7,0,28.3,2.7,40.7,8c12.4,5.4,23.2,13.2,32.3,23.6c9.1,10.4,16.1,23.1,21.2,38.2
			C1323.6,2106.4,1326.1,2123.6,1326.1,2143z M1161.5,2143c0,29.9,4.9,52.3,14.7,67.4c9.8,15.1,25.7,22.6,47.7,22.6
			c22,0,37.8-7.5,47.5-22.6c9.6-15.1,14.5-37.5,14.5-67.4c0-29.9-4.9-52.2-14.7-67c-9.8-14.8-25.7-22.2-47.7-22.2
			c-22,0-37.8,7.4-47.5,22.2C1166.3,2090.9,1161.5,2113.2,1161.5,2143z"/>
		<path class="st2" d="M1534.7,2261.1v-151.5c0-18.6-3.8-32.5-11.3-41.8c-7.5-9.3-19.3-13.9-35.3-13.9c-11.6,0-21.3,1.9-29.1,5.6
			c-7.9,3.7-14.2,9.2-19,16.5c-4.8,7.3-8.2,16.2-10.3,26.8c-2.1,10.6-3.1,22.7-3.1,36.4v122h-39v-235.3h31.7l5.6,31.7h2.1
			c3.6-6.1,7.8-11.5,12.8-16s10.3-8.3,16.2-11.3c5.9-3,12.1-5.2,18.6-6.6c6.6-1.4,13.3-2.1,20.1-2.1c26.1,0,45.8,6.8,59,20.5
			c13.2,13.6,19.8,35.5,19.8,65.5v153.7H1534.7z"/>
		<path class="st2" d="M1901,2196.6c0,11.4-2.1,21.4-6.2,30c-4.1,8.6-10.1,15.8-17.9,21.5c-7.8,5.8-17.2,10.1-28.2,13
			c-11,2.9-23.4,4.3-37.1,4.3c-15.6,0-28.9-1.3-40.1-3.8c-11.1-2.5-20.9-6.2-29.4-11v-35.6c4.4,2.3,9.4,4.5,14.8,6.8
			c5.4,2.2,11.1,4.2,17.1,5.9c6,1.7,12.2,3.1,18.5,4.2c6.4,1.1,12.7,1.6,19,1.6c9.3,0,17.2-0.8,23.7-2.4c6.5-1.6,11.8-3.8,15.9-6.8
			c4.1-2.9,7-6.5,8.9-10.7c1.9-4.2,2.8-8.9,2.8-14c0-4.4-0.7-8.4-2.1-12c-1.4-3.6-4-7.1-7.8-10.6c-3.8-3.5-9-7-15.5-10.6
			c-6.6-3.6-15-7.6-25.3-12c-10.3-4.4-19.5-8.8-27.8-13.1c-8.2-4.3-15.2-9.1-20.9-14.4c-5.7-5.3-10.1-11.4-13.2-18.3
			c-3.1-6.9-4.6-15.2-4.6-24.8c0-10,2-18.9,5.9-26.7c3.9-7.8,9.5-14.3,16.6-19.6c7.1-5.3,15.7-9.3,25.7-12c10-2.7,21.1-4.1,33.4-4.1
			c13.9,0,26.5,1.5,38,4.5c11.5,3,22.4,6.9,32.7,11.8l-13.5,31.5c-9.3-4.1-18.8-7.7-28.6-10.8c-9.8-3.1-19.8-4.6-29.9-4.6
			c-14.6,0-25.4,2.4-32.4,7.2c-7,4.8-10.5,11.6-10.5,20.5c0,5,0.8,9.4,2.5,13.1c1.6,3.7,4.5,7.2,8.5,10.5c4,3.3,9.4,6.6,16.1,10
			c6.7,3.4,15.1,7.1,25.1,11.3c10.3,4.3,19.5,8.6,27.5,12.9c8.1,4.3,15,9.1,20.7,14.5c5.7,5.4,10.1,11.5,13.1,18.3
			C1899.5,2178.8,1901,2187.1,1901,2196.6z"/>
		<path class="st2" d="M2150,2143c0,19.6-2.4,37-7.2,52.2c-4.8,15.2-11.6,28-20.6,38.4c-8.9,10.4-19.8,18.3-32.5,23.7
			c-12.7,5.4-27,8.1-42.9,8.1c-14.7,0-28.3-2.7-40.7-8.1s-23.2-13.3-32.3-23.7c-9.1-10.4-16.1-23.1-21.2-38.4
			c-5.1-15.2-7.6-32.6-7.6-52.2c0-19.4,2.4-36.7,7.2-51.8c4.8-15.1,11.6-27.8,20.5-38.2c8.9-10.4,19.7-18.2,32.5-23.6
			c12.8-5.4,27.1-8,43-8c14.7,0,28.3,2.7,40.7,8c12.4,5.4,23.2,13.2,32.3,23.6c9.1,10.4,16.1,23.1,21.2,38.2
			C2147.5,2106.4,2150,2123.6,2150,2143z M1985.4,2143c0,29.9,4.9,52.3,14.7,67.4c9.8,15.1,25.7,22.6,47.7,22.6
			c22,0,37.8-7.5,47.5-22.6c9.6-15.1,14.5-37.5,14.5-67.4c0-29.9-4.9-52.2-14.7-67c-9.8-14.8-25.7-22.2-47.7-22.2
			c-22,0-37.8,7.4-47.5,22.2C1990.2,2090.9,1985.4,2113.2,1985.4,2143z"/>
		<path class="st2" d="M2313.8,2055.2h-52.5v206H2222v-206h-41.6v-16.1l41.6-14.6v-20.6c0-15.3,1.6-28,4.8-38
			c3.2-10.1,7.9-18.1,13.9-24.1c6.1-6,13.5-10.3,22.4-12.8c8.9-2.5,18.9-3.8,30-3.8c8.4,0,16.2,0.8,23.3,2.5
			c7.1,1.6,13.4,3.5,19,5.5l-10.1,30.2c-4.4-1.6-9.3-3-14.5-4.2c-5.2-1.2-10.7-1.8-16.4-1.8c-5.7,0-10.6,0.7-14.8,2
			c-4.1,1.4-7.6,3.8-10.3,7.2c-2.7,3.4-4.8,8.1-6.1,14c-1.4,5.9-2,13.5-2,22.8v22.3h52.5V2055.2z"/>
		<path class="st2" d="M2427.2,2233.5c2.6,0,5.5-0.1,8.7-0.4c3.2-0.3,6.3-0.6,9.3-1.1s5.8-0.9,8.3-1.5c2.5-0.6,4.4-1.1,5.7-1.5v29.6
			c-1.9,0.9-4.2,1.7-7.1,2.6c-2.9,0.9-6,1.6-9.4,2.3c-3.4,0.6-7,1.1-10.7,1.5c-3.7,0.4-7.4,0.5-10.9,0.5c-8.9,0-17.1-1.1-24.6-3.4
			c-7.6-2.3-14.1-6.2-19.6-11.8c-5.5-5.6-9.8-13.1-13-22.6c-3.1-9.5-4.7-21.5-4.7-35.9v-136.5h-33.2v-17.4l33.2-16.7l16.7-49.3h22.5
			v54h59.2v29.4h-59.2v136.5c0,13.9,2.3,24.3,6.8,31.3C2409.5,2230,2416.9,2233.5,2427.2,2233.5z"/>
		<path class="st2" d="M2683.5,2261.1l-36-132c-0.6-2.6-1.3-5.5-2.1-8.7c-0.9-3.2-1.7-6.6-2.6-10.2c-0.9-3.6-1.8-7.2-2.7-10.9
			c-0.9-3.7-1.8-7.4-2.7-10.9c-2-8.3-4.1-16.9-6.2-25.7h-1.3c-2,9-3.9,17.6-5.8,25.9c-1.6,7.1-3.3,14.5-5,22.1
			c-1.8,7.6-3.5,14-5,19.3l-36.9,131.2H2532l-60.2-235.3h40.9l28.1,125.2c1.4,6.4,2.9,13.4,4.3,20.9c1.4,7.5,2.8,14.9,4.1,22.3
			c1.3,7.4,2.4,14.3,3.4,20.8c1,6.5,1.8,11.8,2.4,16h1.3c0.7-3.7,1.7-8.7,2.9-14.9c1.2-6.2,2.6-12.8,4.1-19.7
			c1.5-6.9,3-13.8,4.6-20.6c1.6-6.8,3.1-12.5,4.5-17.3l38.4-132.7h42l36.9,132.7c1.3,4.9,2.7,10.6,4.4,17.1c1.6,6.6,3.2,13.3,4.8,20
			c1.6,6.8,3,13.3,4.3,19.6c1.3,6.3,2.2,11.5,2.8,15.6h1.3c0.4-3.7,1.1-8.7,2-14.9c0.9-6.2,2-13,3.3-20.5c1.3-7.4,2.7-15,4.2-22.8
			c1.5-7.8,3-15,4.6-21.8l29.4-125.2h39.9l-60.9,235.3H2683.5z"/>
		<path class="st2" d="M2964.9,2261.1l-7.9-32.6h-1.7c-4.7,6.4-9.4,12-14.1,16.6c-4.7,4.6-9.9,8.5-15.4,11.5
			c-5.6,3-11.8,5.2-18.6,6.6c-6.9,1.4-14.8,2.1-23.8,2.1c-9.9,0-18.9-1.4-27.2-4.2c-8.3-2.8-15.5-7.1-21.5-12.9
			c-6.1-5.8-10.8-13.1-14.3-21.9c-3.4-8.8-5.1-19.2-5.1-31.2c0-23.4,8.3-41.4,24.8-54c16.5-12.6,41.6-19.4,75.3-20.6l39.4-1.5v-14.8
			c0-9.6-1-17.6-3.1-24c-2.1-6.4-5.1-11.6-9-15.5c-3.9-3.9-8.8-6.8-14.6-8.5s-12.4-2.6-19.8-2.6c-11.9,0-22.9,1.7-33.1,5.1
			c-10.2,3.4-20,7.6-29.5,12.4l-13.7-29.4c10.6-5.7,22.4-10.6,35.4-14.6c13-4,26.6-6,40.9-6c14.6,0,27.2,1.5,37.8,4.4
			c10.6,2.9,19.4,7.6,26.4,13.9c6.9,6.4,12.1,14.5,15.5,24.3s5.1,21.8,5.1,35.8v161.2H2964.9z M2893.3,2233.9
			c8.7,0,16.8-1.4,24.2-4.1c7.4-2.7,13.9-6.8,19.3-12.3c5.4-5.5,9.7-12.4,12.8-20.8c3.1-8.4,4.6-18.2,4.6-29.5V2146l-30.6,1.5
			c-12.9,0.6-23.7,2-32.4,4.3c-8.7,2.3-15.7,5.5-20.9,9.5c-5.2,4.1-9,9-11.3,14.8c-2.3,5.8-3.4,12.3-3.4,19.6
			c0,13.1,3.5,22.8,10.4,28.9C2872.9,2230.8,2882,2233.9,2893.3,2233.9z"/>
		<path class="st2" d="M3167,2021.5c4.1,0,8.8,0.2,13.9,0.5c5.1,0.4,9.6,0.9,13.3,1.6l-5.1,36c-4-0.7-8.1-1.3-12.3-1.8
			c-4.2-0.5-8.2-0.8-11.9-0.8c-9,0-17.2,1.8-24.6,5.5c-7.4,3.6-13.8,8.9-19.2,15.6c-5.4,6.8-9.5,14.9-12.4,24.4
			c-2.9,9.5-4.4,20-4.4,31.6v126.9h-39v-235.3h31.7l4.7,43.1h1.7c3.6-6.1,7.4-12.1,11.5-17.8c4.1-5.7,8.6-10.8,13.7-15.1
			c5.1-4.4,10.8-7.9,17-10.5C3151.9,2022.8,3159,2021.5,3167,2021.5z"/>
		<path class="st2" d="M3333.4,2265.4c-15.7,0-30.1-2.6-43.1-7.9c-13-5.3-24.2-13-33.5-23.1c-9.4-10.1-16.6-22.7-21.8-37.7
			c-5.1-15-7.7-32.1-7.7-51.4c0-19.4,2.4-36.8,7.1-52.1c4.7-15.3,11.4-28.3,19.9-38.9c8.6-10.6,18.8-18.8,30.8-24.3
			c11.9-5.6,25.1-8.4,39.5-8.4c14.1,0,26.9,2.5,38.2,7.6c11.3,5.1,20.9,12.2,28.7,21.4c7.9,9.2,13.9,20.3,18.1,33.2
			c4.2,12.9,6.3,27.3,6.3,43v24.2h-148.3c0.7,27.6,6.5,47.9,17.5,60.9c10.9,13,27.2,19.5,48.8,19.5c7.3,0,14-0.4,20.3-1.1
			c6.2-0.7,12.2-1.7,18-3.1c5.8-1.4,11.4-3.1,16.8-5.1c5.4-2.1,10.9-4.4,16.5-7v34.7c-5.7,2.7-11.3,5.1-16.8,7.1
			c-5.5,2-11.1,3.6-16.9,4.9c-5.8,1.3-11.8,2.2-18,2.8C3347.4,2265.1,3340.6,2265.4,3333.4,2265.4z M3323.7,2053.9
			c-16.3,0-29.2,5.6-38.7,16.7c-9.5,11.1-15,27.4-16.6,48.7h105.5c0-9.7-1-18.6-2.9-26.7c-1.9-8.1-4.9-15-9-20.7
			c-4.1-5.7-9.3-10.1-15.5-13.3C3340.1,2055.5,3332.6,2053.9,3323.7,2053.9z"/>
	</g>
	<path class="st0" d="M6830.9,38c-316.5,0-573,256.6-573,573.1c0,120.8,37.4,232.7,101.2,325.1l227.3,393.6l244.6,423.6l244.5-423.6
		L7302.9,936c63.7-92.3,101.1-204.2,101.1-324.9C7404,294.6,7147.4,38,6830.9,38z M6830.9,918.8c-197.4,0-357.4-160-357.4-357.4
		s160-357.4,357.4-357.4s357.4,160,357.4,357.4S7028.3,918.8,6830.9,918.8z"/>
	<path class="st0" d="M7032.3,561.4c0,111.2-90.1,201.3-201.4,201.3c-111.2,0-201.3-90.1-201.3-201.3s90.1-201.3,201.3-201.3
		C6942.1,360.1,7032.3,450.2,7032.3,561.4z"/>
</g>
</svg>
