<?xml version="1.0" ?>
<!DOCTYPE svg  PUBLIC '-//W3C//DTD SVG 1.1//EN'  'http://www.w3.org/Graphics/SVG/1.1/DTD/svg11.dtd'>
<svg xmlns="http://www.w3.org/2000/svg" xmlns:xlink="http://www.w3.org/1999/xlink">
<symbol id="instagram" height="100%" style="fill-rule:evenodd;clip-rule:evenodd;stroke-linejoin:round;stroke-miterlimit:2;" version="1.1" viewBox="0 0 512 512" width="100%" xml:space="preserve" xmlns="http://www.w3.org/2000/svg" xmlns:serif="http://www.serif.com/" xmlns:xlink="http://www.w3.org/1999/xlink"><path d="M256,0c141.29,0 256,114.71 256,256c0,141.29 -114.71,256 -256,256c-141.29,0 -256,-114.71 -256,-256c0,-141.29 114.71,-256 256,-256Zm0,96c-43.453,0 -48.902,0.184 -65.968,0.963c-17.03,0.777 -28.661,3.482 -38.839,7.437c-10.521,4.089 -19.444,9.56 -28.339,18.455c-8.895,8.895 -14.366,17.818 -18.455,28.339c-3.955,10.177 -6.659,21.808 -7.437,38.838c-0.778,17.066 -0.962,22.515 -0.962,65.968c0,43.453 0.184,48.902 0.962,65.968c0.778,17.03 3.482,28.661 7.437,38.838c4.089,10.521 9.56,19.444 18.455,28.34c8.895,8.895 17.818,14.366 28.339,18.455c10.178,3.954 21.809,6.659 38.839,7.436c17.066,0.779 22.515,0.963 65.968,0.963c43.453,0 48.902,-0.184 65.968,-0.963c17.03,-0.777 28.661,-3.482 38.838,-7.436c10.521,-4.089 19.444,-9.56 28.34,-18.455c8.895,-8.896 14.366,-17.819 18.455,-28.34c3.954,-10.177 6.659,-21.808 7.436,-38.838c0.779,-17.066 0.963,-22.515 0.963,-65.968c0,-43.453 -0.184,-48.902 -0.963,-65.968c-0.777,-17.03 -3.482,-28.661 -7.436,-38.838c-4.089,-10.521 -9.56,-19.444 -18.455,-28.339c-8.896,-8.895 -17.819,-14.366 -28.34,-18.455c-10.177,-3.955 -21.808,-6.66 -38.838,-7.437c-17.066,-0.779 -22.515,-0.963 -65.968,-0.963Zm0,28.829c42.722,0 47.782,0.163 64.654,0.933c15.6,0.712 24.071,3.318 29.709,5.509c7.469,2.902 12.799,6.37 18.397,11.969c5.6,5.598 9.067,10.929 11.969,18.397c2.191,5.638 4.798,14.109 5.509,29.709c0.77,16.872 0.933,21.932 0.933,64.654c0,42.722 -0.163,47.782 -0.933,64.654c-0.711,15.6 -3.318,24.071 -5.509,29.709c-2.902,7.469 -6.369,12.799 -11.969,18.397c-5.598,5.6 -10.928,9.067 -18.397,11.969c-5.638,2.191 -14.109,4.798 -29.709,5.509c-16.869,0.77 -21.929,0.933 -64.654,0.933c-42.725,0 -47.784,-0.163 -64.654,-0.933c-15.6,-0.711 -24.071,-3.318 -29.709,-5.509c-7.469,-2.902 -12.799,-6.369 -18.398,-11.969c-5.599,-5.598 -9.066,-10.928 -11.968,-18.397c-2.191,-5.638 -4.798,-14.109 -5.51,-29.709c-0.77,-16.872 -0.932,-21.932 -0.932,-64.654c0,-42.722 0.162,-47.782 0.932,-64.654c0.712,-15.6 3.319,-24.071 5.51,-29.709c2.902,-7.468 6.369,-12.799 11.968,-18.397c5.599,-5.599 10.929,-9.067 18.398,-11.969c5.638,-2.191 14.109,-4.797 29.709,-5.509c16.872,-0.77 21.932,-0.933 64.654,-0.933Zm0,49.009c-45.377,0 -82.162,36.785 -82.162,82.162c0,45.377 36.785,82.162 82.162,82.162c45.377,0 82.162,-36.785 82.162,-82.162c0,-45.377 -36.785,-82.162 -82.162,-82.162Zm0,135.495c-29.455,0 -53.333,-23.878 -53.333,-53.333c0,-29.455 23.878,-53.333 53.333,-53.333c29.455,0 53.333,23.878 53.333,53.333c0,29.455 -23.878,53.333 -53.333,53.333Zm104.609,-138.741c0,10.604 -8.597,19.199 -19.201,19.199c-10.603,0 -19.199,-8.595 -19.199,-19.199c0,-10.604 8.596,-19.2 19.199,-19.2c10.604,0 19.201,8.596 19.201,19.2Z"/></symbol>
<symbol id="facebook" height="100%" style="fill-rule:evenodd;clip-rule:evenodd;stroke-linejoin:round;stroke-miterlimit:2;" version="1.1" viewBox="0 0 512 512" width="100%" xml:space="preserve" xmlns="http://www.w3.org/2000/svg" xmlns:serif="http://www.serif.com/" xmlns:xlink="http://www.w3.org/1999/xlink"><path d="M255.022,511.998l0.229,0.001l-0.079,0l-0.15,-0.001Zm1.806,0.001l-0.079,0l0.229,-0.001l-0.15,0.001Zm-2.588,-0.005l0.247,0.001l-0.142,0l-0.105,-0.001Zm3.415,0.001l-0.142,0l0.247,-0.001l-0.105,0.001Zm-4.169,-0.007l0.165,0.001l-0.132,-0.001l-0.033,0Zm4.995,0l-0.132,0.001l0.165,-0.001l-0.033,0Zm0.826,-0.009l-0.058,0.001l0.223,-0.003l-0.165,0.002Zm-6.779,-0.002l0.223,0.003l-0.058,-0.001l-0.165,-0.002Zm7.604,-0.01l-0.135,0.002l0.275,-0.004l-0.14,0.002Zm-8.404,-0.002l0.275,0.004l-0.135,-0.002l-0.14,-0.002Zm9.228,-0.012l-0.182,0.003l0.254,-0.005l-0.072,0.002Zm-9.984,-0.002l0.254,0.005l-0.182,-0.003l-0.072,-0.002Zm-0.937,-0.019l0.225,0.005l-0.04,-0.001l-0.185,-0.004Zm11.745,0.004l-0.04,0.001l0.225,-0.005l-0.185,0.004Zm-12.567,-0.025l0.309,0.008l-0.125,-0.003l-0.184,-0.005Zm13.39,0.005l-0.125,0.003l0.309,-0.008l-0.184,0.005Zm0.823,-0.022l-0.201,0.006l0.316,-0.009l-0.115,0.003Zm-14.967,-0.003l0.316,0.009l-0.201,-0.006l-0.115,-0.003Zm-0.72,-0.022l0.225,0.007l-0.212,-0.007l-0.194,-0.006l0.181,0.006Zm16.509,0l-0.212,0.007l0.225,-0.007l0.181,-0.006l-0.194,0.006Zm0.821,-0.027l-0.112,0.004l0.345,-0.012l-0.233,0.008Zm-18.371,-0.008l0.345,0.012l-0.112,-0.004l-0.233,-0.008Zm-0.749,-0.028l0.362,0.013l-0.201,-0.007l-0.161,-0.006Zm19.941,0.006l-0.201,0.007l0.362,-0.013l-0.161,0.006Zm-20.676,-0.036l0.354,0.015l-0.277,-0.011l-0.077,-0.004Zm21.495,0.004l-0.277,0.011l0.354,-0.015l-0.077,0.004Zm-22.525,-0.049l0.38,0.017l-0.093,-0.003l-0.287,-0.014Zm23.345,0.014l-0.093,0.003l0.38,-0.017l-0.287,0.014Zm-24.084,-0.048l0.394,0.018l-0.186,-0.008l-0.208,-0.01Zm24.902,0.01l-0.186,0.008l0.394,-0.018l-0.208,0.01Zm-25.63,-0.047l0.397,0.02l-0.279,-0.013l-0.118,-0.007Zm26.448,0.007l-0.279,0.013l0.397,-0.02l-0.118,0.007Zm0.818,-0.043l-0.362,0.019l0.321,-0.017l0.378,-0.021l-0.337,0.019Zm-27.925,0.002l0.321,0.017l-0.362,-0.019l-0.337,-0.019l0.378,0.021Zm28.741,-0.048l-0.16,0.009l0.406,-0.023l-0.246,0.014Zm-29.844,-0.014l0.406,0.023l-0.16,-0.009l-0.246,-0.014Zm-0.722,-0.043l0.405,0.024l-0.253,-0.014l-0.152,-0.01Zm31.382,0.01l-0.253,0.014l0.405,-0.024l-0.152,0.01Zm-32.071,-0.053l0.365,0.023l-0.34,-0.021l-0.342,-0.022l0.317,0.02Zm32.887,0.002l-0.34,0.021l0.365,-0.023l0.317,-0.02l-0.342,0.022Zm0.814,-0.053l-0.122,0.008l0.387,-0.026l-0.265,0.018Zm-34.755,-0.018l0.387,0.026l-0.122,-0.008l-0.265,-0.018Zm-0.721,-0.05l0.38,0.027l-0.208,-0.014l-0.172,-0.013Zm36.29,0.013l-0.208,0.014l0.38,-0.027l-0.172,0.013Zm-37.009,-0.064l0.349,0.025l-0.271,-0.019l-0.078,-0.006Zm37.822,0.006l-0.271,0.019l0.349,-0.025l-0.078,0.006Zm-38.789,-0.079l0.306,0.023l-0.074,-0.005l-0.232,-0.018Zm39.602,0.018l-0.074,0.005l0.306,-0.023l-0.232,0.018Zm0.811,-0.063l-0.146,0.011l0.311,-0.025l-0.165,0.014Zm-41.157,-0.014l0.311,0.025l-0.146,-0.011l-0.165,-0.014Zm-0.725,-0.059l0.264,0.022l-0.186,-0.015l-0.078,-0.007Zm42.694,0.007l-0.186,0.015l0.264,-0.022l-0.078,0.007Zm-43.492,-0.074l0.079,0.007l-0.013,-0.001l-0.066,-0.006Zm44.302,0.006l-0.013,0.001l0.079,-0.007l-0.066,0.006Zm0.81,-0.071l-0.072,0.006l0.181,-0.016l-0.109,0.01Zm-45.965,-0.01l0.181,0.016l-0.072,-0.006l-0.109,-0.01Zm-0.75,-0.068l0.135,0.013l-0.084,-0.008l-0.051,-0.005Zm47.523,0.005l-0.084,0.008l0.135,-0.013l-0.051,0.005Zm-63.736,-2.025c-122.319,-19.226 -216,-125.203 -216,-252.887c0,-141.29 114.71,-256 256,-256c141.29,0 256,114.71 256,256c0,127.684 -93.681,233.661 -216,252.887l0,-178.887l59.65,0l11.35,-74l-71,0l0,-48.021c0,-20.245 9.918,-39.979 41.719,-39.979l32.281,0l0,-63c0,0 -29.296,-5 -57.305,-5c-58.476,0 -96.695,35.44 -96.695,99.6l0,56.4l-65,0l0,74l65,0l0,178.887Z"/></symbol>
<symbol id="pinterest" height="100%" style="fill-rule:evenodd;clip-rule:evenodd;stroke-linejoin:round;stroke-miterlimit:2;" version="1.1" viewBox="0 0 512 512" width="100%" xml:space="preserve" xmlns="http://www.w3.org/2000/svg" xmlns:serif="http://www.serif.com/" xmlns:xlink="http://www.w3.org/1999/xlink"><path d="M255.998,0.001c-141.384,0 -255.998,114.617 -255.998,255.998c0,108.456 67.475,201.171 162.707,238.471c-2.24,-20.255 -4.261,-51.405 0.889,-73.518c4.65,-19.978 30.018,-127.248 30.018,-127.248c0,0 -7.659,-15.334 -7.659,-38.008c0,-35.596 20.632,-62.171 46.323,-62.171c21.839,0 32.391,16.399 32.391,36.061c0,21.966 -13.984,54.803 -21.203,85.235c-6.03,25.482 12.779,46.261 37.909,46.261c45.503,0 80.477,-47.976 80.477,-117.229c0,-61.293 -44.045,-104.149 -106.932,-104.149c-72.841,0 -115.597,54.634 -115.597,111.095c0,22.004 8.475,45.596 19.052,58.421c2.09,2.535 2.398,4.758 1.776,7.343c-1.945,8.087 -6.262,25.474 -7.111,29.032c-1.117,4.686 -3.711,5.681 -8.561,3.424c-31.974,-14.884 -51.963,-61.627 -51.963,-99.174c0,-80.755 58.672,-154.915 169.148,-154.915c88.806,0 157.821,63.279 157.821,147.85c0,88.229 -55.629,159.232 -132.842,159.232c-25.94,0 -50.328,-13.476 -58.674,-29.394c0,0 -12.838,48.878 -15.95,60.856c-5.782,22.237 -21.382,50.109 -31.818,67.11c23.955,7.417 49.409,11.416 75.797,11.416c141.389,0 256.003,-114.612 256.003,-256.001c0,-141.381 -114.614,-255.998 -256.003,-255.998Z" style="fill-rule:nonzero;"/></symbol>
<symbol id="linkedin" height="100%" style="fill-rule:evenodd;clip-rule:evenodd;stroke-linejoin:round;stroke-miterlimit:2;" version="1.1" viewBox="0 0 512 512" width="100%" xml:space="preserve" xmlns="http://www.w3.org/2000/svg" xmlns:serif="http://www.serif.com/" xmlns:xlink="http://www.w3.org/1999/xlink"><path d="M256,0c141.29,0 256,114.71 256,256c0,141.29 -114.71,256 -256,256c-141.29,0 -256,-114.71 -256,-256c0,-141.29 114.71,-256 256,-256Zm-80.037,399.871l0,-199.921l-66.464,0l0,199.921l66.464,0Zm239.62,0l0,-114.646c0,-61.409 -32.787,-89.976 -76.509,-89.976c-35.255,0 -51.047,19.389 -59.889,33.007l0,-28.306l-66.447,0c0.881,18.757 0,199.921 0,199.921l66.446,0l0,-111.65c0,-5.976 0.43,-11.95 2.191,-16.221c4.795,-11.935 15.737,-24.299 34.095,-24.299c24.034,0 33.663,18.34 33.663,45.204l0,106.966l66.45,0Zm-272.403,-296.321c-22.74,0 -37.597,14.95 -37.597,34.545c0,19.182 14.405,34.544 36.717,34.544l0.429,0c23.175,0 37.6,-15.362 37.6,-34.544c-0.43,-19.595 -14.424,-34.545 -37.149,-34.545Z"/></symbol>
<symbol id="twitter" height="100%" style="fill-rule:evenodd;clip-rule:evenodd;stroke-linejoin:round;stroke-miterlimit:2;" version="1.1" viewBox="0 0 512 512" width="100%" xml:space="preserve" xmlns="http://www.w3.org/2000/svg" xmlns:serif="http://www.serif.com/" xmlns:xlink="http://www.w3.org/1999/xlink"><path d="M256,0c141.29,0 256,114.71 256,256c0,141.29 -114.71,256 -256,256c-141.29,0 -256,-114.71 -256,-256c0,-141.29 114.71,-256 256,-256Zm-45.091,392.158c113.283,0 175.224,-93.87 175.224,-175.223c0,-2.682 0,-5.364 -0.128,-7.919c12.005,-8.684 22.478,-19.54 30.779,-31.928c-10.983,4.853 -22.861,8.174 -35.377,9.706c12.772,-7.663 22.478,-19.668 27.076,-34.099c-11.878,7.024 -25.032,12.132 -39.081,14.942c-11.239,-12.005 -27.203,-19.412 -44.955,-19.412c-33.972,0 -61.558,27.586 -61.558,61.558c0,4.853 0.511,9.578 1.66,14.048c-51.213,-2.554 -96.552,-27.075 -126.947,-64.368c-5.237,9.068 -8.302,19.668 -8.302,30.907c0,21.328 10.856,40.23 27.459,51.213c-10.09,-0.255 -19.541,-3.065 -27.842,-7.662l0,0.766c0,29.885 21.2,54.661 49.425,60.409c-5.108,1.404 -10.6,2.171 -16.219,2.171c-3.96,0 -7.791,-0.383 -11.622,-1.15c7.79,24.521 30.523,42.274 57.471,42.784c-21.073,16.476 -47.637,26.31 -76.501,26.31c-4.981,0 -9.834,-0.256 -14.687,-0.894c26.948,17.624 59.387,27.841 94.125,27.841Z"/></symbol>
<symbol id="yelp" version="1.1" xmlns="http://www.w3.org/2000/svg" xmlns:xlink="http://www.w3.org/1999/xlink" x="0px" y="0px" viewBox="0 0 512 512" style="enable-background:new 0 0 512 512;" xml:space="preserve"><path id="XMLID_9_" class="st0" d="M256,0C114.5,0,0,114.5,0,256s114.5,256,256,256s256-114.5,256-256S397.5,0,256,0z M136.8,305.3 c-5.6,0-10.2-3.7-13-8.4c-1.9-3.7-2.8-8.4-3.7-15.8c-1.9-19.5,0-48.4,6.5-58.6c3.7-5.6,8.4-8.4,14-7.4c3.7,0,3.7,0,62.4,24.2l0,0 c1.9,0.9,5.6,1.9,16.8,6.5c7.4,2.8,12.1,10.2,11.2,18.6c-0.9,8.4-5.6,14.9-12.1,16.8c-0.9,0-5.6,1.9-23.3,7.4 C145.2,304.4,140.6,305.3,136.8,305.3L136.8,305.3z M259.7,337c0,56.8,0,56.8-0.9,60.5c-1.9,5.6-6.5,8.4-12.1,10.2 c-0.9,0-1.9,0-3.7,0c-17.7,0-56.8-14.9-66.1-26.1c-1.9-2.8-3.7-5.6-3.7-9.3c0-1.9,0-4.7,0.9-6.5c0.9-2.8,0.9-3.7,42.8-52.1l0.9-0.9 c2.8-2.8,10.2-12.1,10.2-12.1c4.7-5.6,13-8.4,21.4-4.7c7.4,2.8,12.1,9.3,12.1,16.8L259.7,337z M247.6,226.2 c-1.9,0.9-3.7,0.9-4.7,0.9c-7.4,0-14-5.6-20.5-15.8C215,200.1,150.8,98.7,148.9,95c-1.9-5.6,0-11.2,4.7-15.8 c11.2-12.1,70.7-28.9,86.6-24.2c6.5,1.9,10.2,5.6,12.1,11.2l0,0c0.9,5.6,8.4,109.8,9.3,133.1C260.7,214.1,256.9,223.4,247.6,226.2z M280.2,226.2l14-19.5c32.6-45.6,33.5-45.6,36.3-47.5c4.7-2.8,10.2-3.7,15.8-0.9c13,6.5,40,45.6,41,61.4l0,0v0.9 c0,5.6-1.9,11.2-6.5,14c-2.8,1.9-3.7,1.9-65.2,16.8c0,0-17.7,5.6-25.1,3.7c-4.7-0.9-8.4-3.7-11.2-8.4 C275.5,240.2,275.5,231.8,280.2,226.2z M390.1,322.1c-1.9,14.9-31.7,53.1-45.6,58.6c-1.9,0.9-4.7,0.9-6.5,0.9 c-3.7,0-6.5-0.9-9.3-2.8s-3.7-3.7-36.3-56.8l-9.3-14.9c-4.7-6.5-3.7-14.9,1.9-21.4c5.6-6.5,13-8.4,19.5-6.5c0.9,0,14,4.7,23.3,7.4 c54,17.7,54,17.7,56.8,19.5C389.1,310.9,391,316.5,390.1,322.1z"/></symbol>
</svg>