<svg id="yelp-logo" xmlns="http://www.w3.org/2000/svg" width="97.75" height="97.75" viewBox="0 0 97.75 97.75">
  <path id="Path_3" data-name="Path 3" d="M48.875,0A48.875,48.875,0,1,0,97.75,48.875,48.876,48.876,0,0,0,48.875,0ZM19.086,62.536A50.73,50.73,0,0,1,19.429,49c.63-2.793,2.18-3.49,4.83-2.428q7.853,3.146,15.673,6.365a3.352,3.352,0,0,1,2.3,3.545,3.228,3.228,0,0,1-2.58,3.176c-5.5,1.752-10.992,3.509-16.5,5.213C20.957,65.545,19.576,64.8,19.086,62.536Zm29.65,22.778c-.024,2.209-1.158,3.387-3.349,3.17a28.442,28.442,0,0,1-13.441-4.922c-1.833-1.258-1.98-2.873-.563-4.582q5.623-6.771,11.336-13.469a3.316,3.316,0,0,1,4.018-.924,3.1,3.1,0,0,1,2.1,3.25c.015,2.913,0,5.825,0,8.738h-.1C48.744,79.489,48.77,82.4,48.736,85.314Zm-.007-40.562a2.926,2.926,0,0,1-5,1.484,10.845,10.845,0,0,1-1.985-2.388Q33.8,31.374,25.921,18.86C24.4,16.453,24.7,15,27.254,13.707a40.677,40.677,0,0,1,16.075-4.45c2.7-.162,3.648.744,3.835,3.416.663,9.53,1.291,19.062,1.957,28.939A19.11,19.11,0,0,1,48.729,44.752Zm6.453,3.533c3.45-4.679,6.879-9.376,10.355-14.037,1.488-2,3.107-2.189,4.949-.479A29.358,29.358,0,0,1,78.092,45.13c.884,2.366.1,3.749-2.336,4.376-5.544,1.426-11.1,2.792-16.659,4.176a9.155,9.155,0,0,1-.963.141,3.524,3.524,0,0,1-3.2-1.992A3.107,3.107,0,0,1,55.182,48.285ZM78.148,71.538a32.116,32.116,0,0,1-7.575,9.677,7.179,7.179,0,0,1-1.624,1.067,2.47,2.47,0,0,1-3.43-.88q-4.939-7.811-9.768-15.691a3.146,3.146,0,0,1,.557-3.852,3.047,3.047,0,0,1,3.5-1.061q8.525,2.819,17.03,5.686a2.812,2.812,0,0,1,2.115,2.746A17.75,17.75,0,0,1,78.148,71.538Z" fill="#fff"/>
</svg>
