<?xml version="1.0" encoding="utf-8"?>
<!-- Generator: Adobe Illustrator 24.1.1, SVG Export Plug-In . SVG Version: 6.00 Build 0)  -->
<svg version="1.1" id="Layer_1" xmlns="http://www.w3.org/2000/svg" xmlns:xlink="http://www.w3.org/1999/xlink" x="0px" y="0px"
	 viewBox="0 0 512 512" style="enable-background:new 0 0 512 512;" xml:space="preserve">
<style type="text/css">
	.st0{fill:#333333;}
</style>
<g id="XMLID_1_">
	<path id="XMLID_9_" class="st0" d="M256,0C114.5,0,0,114.5,0,256s114.5,256,256,256s256-114.5,256-256S397.5,0,256,0z M136.8,305.3
		c-5.6,0-10.2-3.7-13-8.4c-1.9-3.7-2.8-8.4-3.7-15.8c-1.9-19.5,0-48.4,6.5-58.6c3.7-5.6,8.4-8.4,14-7.4c3.7,0,3.7,0,62.4,24.2l0,0
		c1.9,0.9,5.6,1.9,16.8,6.5c7.4,2.8,12.1,10.2,11.2,18.6c-0.9,8.4-5.6,14.9-12.1,16.8c-0.9,0-5.6,1.9-23.3,7.4
		C145.2,304.4,140.6,305.3,136.8,305.3L136.8,305.3z M259.7,337c0,56.8,0,56.8-0.9,60.5c-1.9,5.6-6.5,8.4-12.1,10.2
		c-0.9,0-1.9,0-3.7,0c-17.7,0-56.8-14.9-66.1-26.1c-1.9-2.8-3.7-5.6-3.7-9.3c0-1.9,0-4.7,0.9-6.5c0.9-2.8,0.9-3.7,42.8-52.1l0.9-0.9
		c2.8-2.8,10.2-12.1,10.2-12.1c4.7-5.6,13-8.4,21.4-4.7c7.4,2.8,12.1,9.3,12.1,16.8L259.7,337z M247.6,226.2
		c-1.9,0.9-3.7,0.9-4.7,0.9c-7.4,0-14-5.6-20.5-15.8C215,200.1,150.8,98.7,148.9,95c-1.9-5.6,0-11.2,4.7-15.8
		c11.2-12.1,70.7-28.9,86.6-24.2c6.5,1.9,10.2,5.6,12.1,11.2l0,0c0.9,5.6,8.4,109.8,9.3,133.1C260.7,214.1,256.9,223.4,247.6,226.2z
		 M280.2,226.2l14-19.5c32.6-45.6,33.5-45.6,36.3-47.5c4.7-2.8,10.2-3.7,15.8-0.9c13,6.5,40,45.6,41,61.4l0,0v0.9
		c0,5.6-1.9,11.2-6.5,14c-2.8,1.9-3.7,1.9-65.2,16.8c0,0-17.7,5.6-25.1,3.7c-4.7-0.9-8.4-3.7-11.2-8.4
		C275.5,240.2,275.5,231.8,280.2,226.2z M390.1,322.1c-1.9,14.9-31.7,53.1-45.6,58.6c-1.9,0.9-4.7,0.9-6.5,0.9
		c-3.7,0-6.5-0.9-9.3-2.8s-3.7-3.7-36.3-56.8l-9.3-14.9c-4.7-6.5-3.7-14.9,1.9-21.4c5.6-6.5,13-8.4,19.5-6.5c0.9,0,14,4.7,23.3,7.4
		c54,17.7,54,17.7,56.8,19.5C389.1,310.9,391,316.5,390.1,322.1z"/>
</g>
</svg>
